<svg height="22" viewBox="0 0 22 22" width="22" xmlns="http://www.w3.org/2000/svg"><g fill="none" transform="translate(0 4.115095)"><path d="m21.9212157 2.7550715c-.5915032 0-.5915032 0-1.1828684 0-.0394611 4.76237232-.0394611 4.76237232-.0787843 9.5247446h1.340437c-.7096107.0392549-.7096107.0392549-1.4193593.0786475 0-4.84101978 0-4.84101978 0-9.68203956.6702875.03925486.6702875.03925486 1.340575.07864746z" fill="#414141"/><path d="m21.9212157 2.7550715v9.5247446c-.6308264 0-.6308264 0-1.2616527 0 0-4.72297968 0-4.72297968 0-9.4459594.6308263-.0393926.6308263-.0393926 1.2616527-.0787852z" fill="#020202"/><path d="m11.0394611 5.51021187h1.2616527v4.0144639c-.6308263 0-.6308263 0-1.2616527 0 0-.66912323 0-.66912323 0-1.33810872-.7097486 0-.7097486 0-1.41935925 0 0-.62973063 0-.62973063 0-1.25946126.70961065-.0393926.70961065-.0393926 1.41935925-.0787852 0-.66912323 0-.66912323 0-1.33810872z" fill="#030303"/><path d="m.07878431 4.17196542h1.18286839v6.76960428c-.63082635 0-.63082635 0-1.2616527 0 .03932316-3.38473328.03932316-3.38473328.07878431-6.76960428z" fill="#000"/><path d="m17.978551 4.17196542h1.1827304v6.76960428c-.6308263 0-.6308263 0-1.2616527 0 .0394612-3.38473328.0394612-3.38473328.0789223-6.76960428z" fill="#000"/><path d="m20.5806407 2.67642404c-.6702875 0-.6702875 0-1.340437 0 0-.70851582 0-.70851582 0-1.41689391-.6702875 0-.6702875 0-1.340575 0 0-.59043445 0-.59043445 0-1.1808138 1.340575-.03935128 1.340575-.03935128 2.681012-.07871633z" fill="#010101"/><path d="m20.5806407 12.3584636v2.6763552c-1.340437 0-1.340437 0-2.681012 0 0-.5903381 0-.5903381 0-1.1806761l1.340575-.0787852c0-.6691232 0-.6691232 0-1.3381087.6701495-.0393926.6701495-.0393926 1.340437-.0787852z" fill="#000"/><path d="m15.2186167 5.51021187h1.2616527v4.0144639c-.6702875 0-.6702875 0-1.340437 0 .0393232-2.00723195.0393232-2.00723195.0787843-4.0144639z" fill="#010101"/><path d="m2.83871858 5.51021187h1.18273042v4.0144639c-.63082635 0-.63082635 0-1.2616527 0 .03946114-2.00723195.03946114-2.00723195.07892228-4.0144639z" fill="#000"/><g fill="#010101"><path d="m4.17915559 9.60346096h1.2616527v2.67635514c-.67028749 0-.67028749 0-1.34043701 0 .03932317-1.3382464.03932317-1.3382464.07878431-2.67635514z"/><path d="m1.41935929 11.0203549h1.2616527v2.6763552c-.67028749 0-.67028749 0-1.34057498 0 .03946114-1.3382465.03946114-1.3382465.07892228-2.6763552z"/><path d="m4.17915559 2.7550715h1.2616527v2.67635518c-.67028749 0-.67028749 0-1.34043701 0 .03932317-1.33810872.03932317-1.33810872.07878431-2.67635518z"/><path d="m6.93908986 8.26521451h1.2616527v2.67635519c-.67028749 0-.67028749 0-1.34057498 0 .03946114-1.33810874.03946114-1.33810874.07892228-2.67635519z"/><path d="m6.93908986 4.09331796h1.2616527v2.67635517c-.67028749 0-.67028749 0-1.34057498 0 .03946114-1.33824645.03946114-1.33824645.07892228-2.67635517z"/><path d="m1.41935929 1.41696278h1.2616527v2.59756998c-.67028749 0-.67028749 0-1.34057498 0 .03946114-1.29885386.03946114-1.29885386.07892228-2.59756998z"/></g><path d="m16.5591917 1.41696278h1.2616527v2.59756998c-.6702875 0-.6702875 0-1.340575 0 .0394612-1.29885386.0394612-1.29885386.0789223-2.59756998z" fill="#000"/><path d="m13.7992574 4.09331796h1.2616527v1.33810872c-.6702875 0-.6702875 0-1.340437 0 .0393232-.66912323.0393232-.66912323.0787843-1.33810872z" fill="#010101"/><path d="m13.7992574 9.60346096h1.2616527v1.33810874c-.6702875 0-.6702875 0-1.340437 0 .0393232-.6691232.0393232-.6691232.0787843-1.33810874z" fill="#000"/><path d="m5.59851488 6.84832059h1.18286839v1.33824646c-.63082635 0-.63082635 0-1.2616527 0 .03932317-.66912323.03932317-.66912323.07878431-1.33824646z" fill="#000"/><path d="m16.5591917 11.0203549h1.2616527v1.2594612c-.6702875 0-.6702875 0-1.340575 0 .0394612-.6297306.0394612-.6297306.0789223-1.2594612z" fill="#000"/><path d="m2.83871858 13.7753575h1.18273042v1.2594613c-.63082635 0-.63082635 0-1.2616527 0 .03946114-.6297307.03946114-.6297307.07892228-1.2594613z" fill="#000"/><path d="m2.83871858 0h1.18273042v1.25953013c-.63082635 0-.63082635 0-1.2616527 0 .03946114-.6297995.03946114-.6297995.07892228-1.25953013z" fill="#000"/></g></svg>