<svg height="22" viewBox="0 0 22 22" width="22" xmlns="http://www.w3.org/2000/svg"><path d="m17.7232356 6.76470588-.0000674 1.15302733 1.1996797.00003176.0771521 9.99317873h-1.2767644l-.0344038.0016832.0006617 1.0873731h-13.37898701l.00066168-1.0873731-.03440378-.0016832h-1.27676439l.07715209-9.99317873 1.19945271-.00003176.00015959-1.15302733zm-11.91144726 3.31489022h-1.75599669l1.81129333 5.8371979h1.36099966l.81404181-2.6181979.81052752 2.6181979h1.36986153l1.7961633-5.8371979h-1.7563101l-.72924225 2.337-.72557183-2.337h-1.53453512l-.73389305 2.318zm8.93396956-.0046554h-1.739426l1.7848404 5.8410483h1.3700816l1.8047602-5.8410483h-1.7651511l-.7217279 2.325zm-1.2378545 3.9979051h-2.0159791l-.5644805 1.818h.523l.4087698-1.318h1.278l.4022302 1.318h.523zm-8.06377695-3.4932497 1.09453142 3.4823591 1.10046858-3.4823591h.8l1.09317283 3.5193425 1.09682722-3.5193425h.713l-1.49000005 4.837h-.631l-1.17764628-3.804715-1.18435372 3.804715h-.625l-1.5-4.837zm8.93400865-.0046554 1.1058215 3.5004994 1.0841785-3.5004994h.72l-1.497 4.841h-.63l-1.479-4.841zm-1.8665999.3037962-.899314 2.814535h1.8113088zm.0030192 1.6321675.221.682h-.439zm4.4854456-7.62855146v.94117647h-11l.07906795-.94117647zm-2-1.88235294-.0762565.94117647-7.9237435-.05536332.0762565-.88581315z"/></svg>