<?xml version="1.0" encoding="UTF-8"?>
<svg width="992px" height="455px" viewBox="0 0 992 455" version="1.1" xmlns="http://www.w3.org/2000/svg" xmlns:xlink="http://www.w3.org/1999/xlink">
    <title>WAVGlobeScope</title>
    <g id="WAVGlobeScope" stroke="none" stroke-width="1" fill="none" fill-rule="evenodd">
        <path d="M475.902156,18.0293558 L476.513339,24.0379542 L478.076969,40.0889263 L481.480105,75.8052413 C483.56722,97.8653512 486.040958,124.220479 488.599533,151.655164 L490.523448,172.316591 L492.425211,192.803928 C493.026146,196.605108 493.530155,200.425682 493.956623,204.26565 L495.42988,225.56002 L499.825291,273.782711 L502.234001,300.361824 L504.247864,323.42953 L504.77343,329.568854 L505.462725,324.138829 L505.872347,320.860351 L506.283395,317.519359 L506.692541,314.131406 L507.487324,307.459946 L508.417802,299.587508 L511.155899,276.842122 L512.222334,268.348104 L512.571545,265.719461 L512.76122,264.348148 L512.867075,263.605479 C512.970583,262.888315 513.067146,262.247077 513.157643,261.67647 L513.291276,260.859112 L513.434545,260.047628 L513.541516,259.495258 C513.593405,259.23997 513.642968,259.015618 513.690511,258.820349 L514.467119,255.601556 L514.881622,253.945692 C517.046921,245.491081 520.665753,234.675764 528.520004,233.589043 L528.787995,233.555696 L529.276198,233.507641 L529.672721,233.475708 C533.100125,233.219416 541.104147,233.072611 549.485773,232.994119 L554.993637,232.952002 L561.231862,232.924105 L565.32265,232.916181 L572.948559,232.928387 L575.198984,232.949049 C575.877458,232.968443 576.5947,233.026625 577.370099,233.084806 L578.07987,233.148871 L578.56411,233.185068 L578.865522,233.200921 C581.308673,233.300557 582.063718,232.539593 583.194794,227.25925 L584.645025,220.444475 L586.320544,212.680443 L588.375158,203.256156 L590.32497,194.38874 L591.972298,186.95058 L595.024726,173.307724 L597.474562,162.524169 L598.757964,156.959637 L599.870972,152.203378 L600.550406,149.344573 L601.070501,147.192785 L601.4269,145.788846 L601.63594,145.009134 L601.865362,144.191756 L602.030108,143.628957 L602.204627,143.053985 C604.089389,136.959266 607.637549,129.153547 614.337215,129.153547 L614.492294,129.153547 L614.769781,129.165677 L615.050872,129.187239 C619.151636,129.570779 624.312107,133.09341 627.188105,146.922143 L627.286367,147.403092 C628.083026,151.326892 629.388223,159.393523 630.934018,169.228731 L633.382774,184.833719 L634.642074,192.776979 L636.116608,201.921557 L637.17512,208.310462 L637.864178,212.343513 L638.244327,214.506925 L638.671599,216.866113 L639.078745,219.014828 L639.277809,220.015926 C639.534295,221.279493 639.754289,222.252511 639.928653,222.867528 L640.0029,223.116403 C640.282043,224.00076 640.533272,224.871153 640.769149,225.723393 L641.584543,228.722513 L641.918585,229.894224 L642.086212,230.451818 L642.256244,230.989346 C643.317431,234.243926 644.113661,234.698186 646.521427,234.929212 L647.091157,234.977344 L647.53693,235.006455 L648.33341,235.046583 L648.998074,235.072283 L650.50764,235.114269 L651.42682,235.132342 L653.452964,235.159514 L656.30565,235.179334 L659.252163,235.179334 L663.627688,235.160882 L668.152254,235.128329 L675.352795,235.058293 L684.206209,234.953479 L694.69756,234.824671 L701.530232,234.763739 C705.100113,234.738263 708.166406,234.727176 710.778853,234.725389 L718.113759,234.74875 L721.978305,234.794725 L722.536127,234.804807 L723.687765,234.830245 L723.912793,234.825204 L724.201362,234.80814 L724.538593,234.777556 L724.91926,234.731968 C727.256327,234.41939 731.543401,233.265184 733.108855,229.943013 L733.856516,228.345507 L734.623101,226.686891 L735.401192,224.985487 L736.436075,222.699048 L738.79593,217.404551 L741.672882,210.828215 L743.402268,206.806236 L744.54598,204.1105 L746.736481,202.791723 C749.38726,201.200532 753.443572,200.386434 757.026783,202.825286 L757.281898,203.005055 C758.932507,204.200867 761.752952,207.124368 762.399263,213.302846 L762.507851,214.439935 L762.584014,215.153845 L762.665553,215.837324 L762.752579,216.49028 C763.373929,220.901816 764.24342,222.012402 764.89634,222.412321 L766.303961,223.219159 C769.737974,225.195229 773.300715,227.353373 776.259772,230.039983 C777.616719,231.34583 778.59889,232.393094 779.206286,233.181774 C780.117379,234.364795 780.912162,235.644784 781.532481,237.041137 L781.818962,235.97363 L782.240879,234.350705 L782.515823,233.26337 C782.699004,232.531577 782.881822,231.786863 783.063478,231.034563 L783.604162,228.76023 L783.870391,227.615988 L784.636454,224.243127 L785.450882,220.542184 L786.219362,216.959581 L787.173504,212.430432 L787.528017,210.664187 C788.589324,205.239889 790.559409,194.208899 792.988991,180.159184 C794.608712,170.792707 795.041643,168.252122 794.287784,172.537429 L796.583575,159.028157 L798.341573,148.585061 L800.325097,136.710223 L802.329735,124.612803 L804.539794,111.159771 L806.758195,97.5198312 L808.736682,85.216722 L810.269743,75.5692875 L811.695476,66.5116425 L813.377627,55.5574759 C815.034184,44.6101858 816.182144,36.4433397 816.527429,32.806308 L816.5611,32.4367729 C816.87126,28.9652869 817.67137,25.5518821 818.092513,23.7289662 C818.338179,22.6655989 818.705297,21.6071304 819.193867,20.5535599 L819.41069,20.1023297 C822.632146,13.179721 827.446858,12.7080425 829.394336,12.8233243 L829.490868,12.8296633 C836.015561,13.3405239 840.861224,21.6227399 840.96771,32.21957 L840.97062,33.9469178 L841.028668,37.0708122 C841.157245,42.6996642 841.477911,53.2642117 841.936011,67.1710303 L841.948187,67.2619086 C841.994113,67.7972417 842.093441,70.6566215 842.246171,75.840049 L843.219433,104.035097 L844.043689,127.012149 L844.262206,133.012909 L844.378515,136.096519 L845.624708,170.041168 L847.952845,231.741026 L849.902307,281.448305 L850.872477,305.093905 L851.461218,301.31654 L852.497768,294.735558 L853.955001,285.64942 L855.047769,278.983794 L856.231735,271.937078 L857.078933,267.032476 L857.900287,262.415414 L858.418566,259.58808 L859.094423,256.026757 L859.529828,253.826014 C860.379977,249.613185 861.101548,246.566568 861.611744,245.302886 C863.453315,240.745348 866.884452,237.545374 870.819599,235.509027 L873.785497,234.229039 C876.673856,233.220562 879.678524,232.735717 882.450573,232.793898 L902.84355,233.220562 C902.940475,232.929655 903.037399,232.54178 903.134324,232.056935 L903.302002,231.220387 L903.488731,230.341074 L903.695551,229.415917 C905.379522,222.058097 908.558663,212.09321 912.801126,199.210187 L918.262835,182.662234 L919.162991,179.918721 L920.076778,177.11436 L921.084796,174.050144 L921.396019,173.144784 L921.752009,172.151377 L921.950124,171.618635 L922.160273,171.069089 L922.498447,170.217563 L922.735525,169.64395 L922.980726,169.070175 L923.237938,168.488861 C925.782879,162.838809 930.033379,156.382412 936.631533,156.382412 L936.805998,156.382412 C946.190141,156.604185 951.208638,170.052143 952.800887,175.244483 L953.011822,175.950734 C953.225057,176.687698 953.515831,177.812537 953.86476,179.325251 L954.717698,183.068251 L955.41474,186.196922 L956.790454,192.494251 L963.468124,223.457123 L964.683862,228.98102 C965.365504,232.038142 965.884961,234.274175 966.116054,235.062971 L966.284936,235.534938 L966.346813,235.721428 L966.406829,235.916298 C967.143457,238.146582 967.569927,239.562327 973.482338,239.329602 L975.605377,239.212548 L975.905458,239.193846 L992,238.971689 L992,257.761533 L975.023206,257.919281 L973.947577,257.967023 C959.292549,258.548837 954.775853,249.744061 952.624123,243.072601 L952.399791,242.362095 L952.224568,241.820545 L951.993306,241.013638 C951.144852,237.903802 949.547293,230.624383 945.645538,212.391644 L945.529229,211.887406 L942.066198,195.811668 L940.572833,189.025485 L939.729383,185.318914 L939.371412,183.815185 L939.14218,182.90349 L938.996497,182.370075 C938.414949,180.353122 937.63955,178.491319 936.902922,177.056179 L936.573377,177.017392 L936.363328,177.456308 L936.143808,177.939751 L935.915008,178.470374 L935.677116,179.05083 C935.313556,179.960213 934.919955,181.046734 934.499187,182.350681 L932.712218,187.81486 L925.416933,209.959115 L924.06279,214.120879 C921.081617,223.342735 918.829095,230.772654 917.776794,235.778131 L917.634274,236.478717 C916.122247,244.197441 912.923728,247.959833 910.500608,249.763455 C907.050086,252.342828 903.657718,252.168284 901.854918,251.819196 L882.217954,251.470108 C880.512078,251.43132 879.019437,251.761015 877.817569,252.187677 L875.200599,253.564636 C875.103675,253.642211 875.00675,253.719786 874.948595,253.797361 L874.831185,254.265083 L874.637877,255.102061 L874.469853,255.876041 L874.1435,257.461801 L873.733852,259.556357 L873.135448,262.751477 L872.442316,266.587766 C872.412045,266.7578 872.381608,266.929049 872.351011,267.101493 C870.567594,289.074644 867.175226,310.718101 862.232062,331.9155 L861.572973,334.727599 L860.759087,340.356179 L860.283411,343.746526 L860.160338,344.584407 L860.027838,345.444885 L859.88453,346.323745 C859.064084,351.2003 855.709475,358.277567 854.730083,359.726179 C854.077155,360.69192 852.267893,361.441813 849.302295,361.975858 C842.251853,361.853641 839.71048,352.52056 838.085579,342.070723 L837.968267,341.304225 L837.852552,340.525155 L837.563672,338.4886 L837.529727,338.193228 C837.373016,336.687332 837.139115,332.624256 836.857152,326.717968 C836.669176,322.780444 836.617484,321.674998 836.702073,323.401632 L836.158634,311.341697 L835.346664,292.082374 L834.450142,269.825885 L833.915485,256.221583 L832.420695,217.262449 C831.980733,205.628544 831.586066,195.059132 831.274284,186.6561 L829.750893,145.147233 C830.010625,152.661644 830.146027,156.616721 830.157098,157.012465 L830.156767,157.02698 L829.549022,139.917094 L828.408221,107.407612 L827.276837,74.8980773 C827.211414,72.9585126 827.148148,71.0736314 827.087133,69.2461649 C826.893283,69.2461649 826.680048,69.2267715 826.466815,69.2267715 L825.183781,77.4451095 L823.995971,84.9557894 L822.227467,96.0049936 L820.993141,103.639562 L819.980785,109.860402 L818.431328,119.317536 L816.836585,128.976314 L812.992402,151.986348 L813.131706,151.280437 C813.069993,151.677673 812.861343,152.939235 812.33518,156.072111 C811.307043,162.193822 810.268262,168.315269 809.218838,174.436453 L806.214897,191.854244 L804.160469,203.505121 L803.376908,207.850482 L802.444808,212.889721 C802.154594,214.426128 801.90397,215.713454 801.697418,216.724946 L800.667107,221.646193 L799.974902,224.897449 L799.330788,227.870514 L798.729062,230.590434 C793.974829,251.82975 790.58461,260.657271 783.839291,262.059111 C782.846601,262.264231 781.838583,262.303019 780.815237,262.175474 C779.791891,262.047928 778.880798,261.76995 778.081958,261.341541 C776.991593,260.656577 776.067577,259.958401 775.309909,259.247013 C774.574526,258.556548 774.261654,258.165492 773.984149,257.761533 L773.498784,257.038312 C771.530926,254.198856 770.266234,250.821953 769.416882,248.561041 L769.319957,248.328315 L769.034208,247.548973 C768.846102,247.041862 768.660868,246.563482 768.467019,246.136818 C767.57531,244.468954 760.868115,240.667773 758.677615,239.407177 C755.149553,237.390225 752.396888,234.054495 750.516548,229.477563 L749.575648,231.584108 L748.323134,234.35166 L747.096149,237.019592 L745.961082,239.445965 C739.715528,252.698463 726.43109,253.47841 723.74742,253.506529 L723.416375,253.506455 L720.101548,253.428879 L719.868265,253.411698 L719.552241,253.394731 L718.968418,253.373111 C717.961041,253.342951 716.499838,253.328705 714.712721,253.326327 L712.522121,253.328592 L708.518624,253.350616 L702.512737,253.406587 L697.686277,253.461843 L689.395774,253.564636 L689.143769,253.564636 L679.145438,253.691055 L672.284449,253.763145 L666.834219,253.807364 L660.76419,253.836148 L655.569021,253.816755 L653.257746,253.800579 L651.91366,253.784158 C649.166798,253.744089 647.00537,253.669066 645.643922,253.545242 C633.031326,252.45589 629.321103,241.576269 627.435599,234.749889 L626.995593,233.123593 C626.814666,232.438346 626.625125,231.753099 626.426967,231.073599 L625.975165,229.568296 L625.778077,228.849968 L625.663131,228.401378 L625.48446,227.66646 L625.202029,226.424501 L624.971454,225.349177 L624.805833,224.547708 L624.548186,223.259008 C623.934094,220.13181 623.22951,216.166592 622.43291,211.439232 L621.600789,206.43145 L620.781053,201.390816 L620.087153,197.06524 L615.088059,165.420677 L614.493395,161.733425 L613.949516,158.438152 L613.213805,161.583661 C611.761035,167.8277 610.073764,175.258339 608.33811,183.004737 L604.878828,198.563613 C601.961137,211.780219 599.259523,224.24355 597.685535,231.688454 C593.130071,253.196154 580.859392,252.110102 576.265157,251.702833 L576.071307,251.683439 C575.780533,251.654349 575.489758,251.625258 575.21534,251.61253 L572.779277,251.582221 L568.247132,251.568858 L562.627545,251.575267 L558.29897,251.591316 L556.048719,251.603111 L551.935805,251.630972 L544.479211,251.706145 L539.532546,251.781316 L536.078809,251.854696 C534.2268,251.901051 532.684436,251.953706 531.582827,252.013133 L531.448648,252.300811 L531.303888,252.634775 L531.139863,253.039869 L530.951881,253.535611 C530.366239,255.129066 529.590319,257.683178 528.590906,261.751844 L527.99661,264.21182 L527.916252,264.618496 L527.787511,265.385943 L527.652736,266.272599 L527.489599,267.412925 L527.27756,268.964857 L526.861466,272.148916 L526.354228,276.17598 L525.829956,280.436898 L524.673539,290.025685 L523.693149,298.247901 L523.673765,298.461233 L522.475449,308.498099 L521.427809,317.166914 L520.612881,323.791876 L520.074473,328.090981 L519.618464,331.671916 L519.021374,336.259707 L518.304131,341.515421 L518.103607,343.022459 L517.905427,344.485089 C517.613699,346.617555 517.330593,348.593835 517.060144,350.369536 L516.869644,351.600186 C514.589973,366.300214 510.30356,373.821929 504.10395,374 L503.746027,374 C503.590947,373.987071 503.435868,373.982761 503.292275,373.975579 L503.086939,373.961212 C496.828947,373.563999 492.470225,365.953663 491.377568,353.559175 L491.213534,351.570771 L486.20264,298.441839 L485.388472,289.986151 L478.500862,217.191059 L473.906167,168.207461 L470.345744,129.851723 L469.609116,121.47361 L467.101063,94.0345573 C465.212419,73.1941481 463.655405,55.5206396 462.669301,43.3942581 L458.254168,84.0651335 L456.659964,98.6083456 L456.117184,103.30164 L454.291061,119.731479 L453.173378,129.71857 L450.172792,156.245079 C445.654625,195.841163 441.467043,230.828022 439.914908,239.339897 L439.641546,240.751585 L439.295705,242.470081 L438.942622,244.159579 L438.670502,245.41083 L438.391007,246.646503 L438.103133,247.864821 L437.903608,248.676355 L437.696854,249.488852 L437.482223,250.301911 C434.838182,260.128845 430.976014,267.529395 423.197822,267.71839 L422.658746,267.722094 C417.330182,267.621509 413.884594,262.579489 410.781967,257.017757 L410.418442,256.361305 L408.436295,252.711838 L407.875104,251.700496 L407.348698,250.777593 L407.002235,250.188382 L406.662512,249.628548 L406.332239,249.105406 C405.953488,248.519319 405.599562,248.023075 405.289823,247.668927 C403.797182,245.981669 401.044517,244.003503 398.369394,242.083519 L397.326013,241.33484 L396.228117,240.538295 C393.124463,238.265931 390.108989,235.848001 387.901516,232.929655 C385.7304,230.059376 383.830675,225.831532 381.969719,221.196419 L381.91659,221.332894 C381.907256,221.358034 381.89864,221.383892 381.892179,221.409751 L381.542369,222.441229 L381.198406,223.437686 C377.902226,232.902311 375.448243,237.522227 374.487125,239.155058 C373.382182,242.277457 369.563346,247.882258 362.507221,247.882258 L359.298803,247.855056 C358.641418,247.851804 357.907994,247.849231 357.105535,247.847393 L349.500831,247.849072 L341.716587,247.877046 L335.710313,247.912413 L331.937141,247.94044 L327.82753,247.959833 L321.067501,248.025254 L309.979981,248.167536 L302.607183,248.292438 C291.673682,248.500143 282.51215,248.786034 278.658931,249.161095 L269.194954,250.123254 L265.227676,250.507759 L262.120926,250.792193 L260.864826,250.901224 L258.48221,251.095052 L257.239643,251.187435 C255.825811,251.28842 254.539923,251.365094 253.408675,251.411926 C238.753647,251.99374 234.236951,243.188964 232.085221,236.517504 L231.871986,235.838722 L231.734397,235.423148 L231.532282,234.739797 L231.214388,233.545629 L230.916289,232.342374 L230.384001,230.079496 L229.665004,226.897366 C229.154842,224.607363 228.534957,221.771046 227.773381,218.248963 L221.574705,189.425677 L220.29194,183.590506 C219.549376,180.254446 218.946092,177.639748 218.59629,176.316956 L218.457595,175.814977 C217.876046,173.798025 217.100648,171.916828 216.36402,170.481688 L204.849354,203.548081 L203.744063,206.942458 C200.660249,216.459962 198.324833,224.118532 197.255671,229.227375 L197.114755,229.92362 C195.602729,237.642343 192.404211,241.404737 189.981091,243.208358 C186.530568,245.768337 183.118816,245.613186 181.335399,245.264099 L161.698437,244.915011 C157.860215,244.837435 155.049396,246.544087 154.429078,247.242264 L154.312841,247.699059 C153.24293,252.071083 150.774007,266.293091 148.098201,282.726804 L146.609686,291.96201 L145.575165,298.486299 L144.827973,303.252339 L143.38252,312.609675 L142.364096,319.328351 L141.423723,325.651011 L141.130995,327.64887 L140.665757,330.907024 C140.581755,331.456515 140.502062,331.99954 140.42524,332.533947 L139.764397,337.204497 L139.638613,338.060906 L139.431277,339.387955 L139.278437,340.29441 L139.117576,341.184196 C138.279488,345.654904 136.917689,350.401406 134.26872,353.132294 C132.798817,354.670868 131.041247,355.440154 128.996012,355.440154 L128.821548,355.440154 C121.862348,355.323791 119.303533,346.28629 117.675197,336.046375 L117.229342,333.137309 C117.190572,332.749433 117.132417,332.380952 117.074262,332.01247 L117.043937,331.762294 C116.528366,327.0338 115.026824,291.022555 113.488046,251.528289 L113.119731,242.102913 L112.420629,223.884352 C112.329299,221.469912 112.2391,219.065874 112.150483,216.677669 L111.781818,207.269721 L109.984735,158.728512 L108.913195,129.211728 L108.796886,126.263874 L107.187933,80.3587996 L107.071624,77.2751893 L106.470691,59.3553377 L105.324031,66.7364544 L104.16087,74.1178663 L103.427252,78.729723 L101.246611,92.346842 L99.8809348,100.786103 L98.1954406,111.114118 L97.0531297,118.065894 L95.615114,126.768112 L95.1304896,129.793541 L91.2911288,152.696328 L89.0502108,165.932293 L87.2148202,176.654553 L86.0389443,183.456126 L83.9794044,195.189579 L83.1191147,199.984472 L82.2600163,204.6708 C81.9071488,206.566883 81.6014051,208.166681 81.3492364,209.433524 L81.1151648,210.588023 L80.1503512,215.17876 C74.1841214,243.340672 70.8333829,254.292872 62.9514588,255.600983 C54.5190019,256.977941 50.71955,246.873782 48.916749,242.025338 L48.7810543,241.676249 L48.4553869,240.806166 C48.2925532,240.380745 48.1297196,239.973476 47.966886,239.601115 C47.055793,237.93325 40.3679823,234.132069 38.177482,232.871474 C34.6300346,230.854521 31.8773706,227.518791 29.9970295,222.941859 L28.4375721,226.409326 L27.276557,228.958642 L26.1964135,231.298414 L25.4415644,232.910261 C22.1073515,239.988991 17.7980696,244.022897 12.6087219,244.915011 C9.14915681,245.509753 4.9462495,245.714219 0,245.528406 L0,226.802434 C5.04197781,226.586998 7.80341872,226.405585 8.28432273,226.258196 C9.24581216,225.963514 10.4805057,225.355842 11.9884032,224.435181 C12.2210227,224.105486 12.4342573,223.775792 12.6087219,223.407311 L13.378696,221.764803 L14.1684921,220.057393 L14.9700189,218.305134 L15.7751846,216.528081 L17.1555716,213.448246 L19.3234494,208.541189 L21.3079435,203.984287 L22.9021348,200.270533 L24.0458473,197.574797 L26.2363476,196.256021 C28.9502418,194.626943 33.1373929,193.812404 36.781765,196.469351 L37.0034211,196.63525 L37.2422468,196.826078 C38.9117654,198.204698 41.3096737,201.13217 41.89913,206.767142 L42.0077184,207.906196 L42.0838813,208.621841 L42.1654201,209.306788 L42.2524461,209.960944 L42.3499335,210.61493 C42.9624052,214.490606 43.7767701,215.497766 44.3962071,215.876637 L46.4903602,217.078548 L47.2994764,217.550748 L48.1298401,218.043587 C53.3872576,221.195425 58.5688343,224.948232 61.0323479,230.505433 L61.3188301,229.437927 C62.7544913,224.015663 64.230302,217.379753 65.359105,212.112423 L66.7997842,205.281634 L67.2628554,202.9271 L67.9510229,199.259579 L68.8122615,194.524248 L70.0370034,187.633966 L71.7328449,177.909505 L72.2174689,175.019832 L73.6539288,166.659658 L75.3914541,156.456809 L78.016475,140.899211 L79.3705185,132.81897 L79.8939124,129.638391 L80.9899703,123.075482 L82.4810446,114.077365 L83.4673569,108.08201 L84.7196262,100.420458 L86.3491035,90.3659894 L86.9500373,86.6811716 L89.8006496,68.8439027 L91.518478,57.8786363 C92.4011777,52.1859485 93.1888387,47.0012869 93.8510819,42.502144 L94.8791848,35.2155035 L95.4113604,31.2939683 L95.6253945,29.6261939 L95.8184214,28.0312214 L95.9328944,27.0065539 L96.0204773,26.1344638 L96.0415825,25.90107 C97.6699192,6.87577357 106.373766,6.06123427 108.990735,6.27456607 C114.360368,6.70122865 118.605674,12.4029998 119.982007,20.3156615 L120.369705,23.5350289 C120.416229,24.3107803 120.462753,25.0865307 120.469577,25.882142 L120.464752,26.9263961 L120.482399,28.5403817 L120.587415,33.238594 L120.820718,41.473149 L121.634963,66.7514703 L121.823577,72.3491696 L121.920502,75.3552051 L122.86641,102.34924 L123.781458,127.660225 L123.897768,130.666261 C123.949461,132.204834 124.00977,133.752027 124.067207,135.307839 L124.149039,137.645566 L124.615011,150.098827 L125.160367,164.837287 L127.406811,224.168238 C128.518289,252.989073 129.566969,279.358241 130.372344,298.558202 L131.210406,293.189638 L132.063864,287.782537 L132.849904,282.860536 L133.249799,280.379564 L134.350492,273.640085 L135.53586,266.552079 L136.284097,262.188052 C138.290607,250.616579 140.109139,241.250161 141.111611,238.767183 C144.697829,229.92362 154.196458,226.12244 161.950442,226.258196 L182.343417,226.684858 C182.440342,226.393952 182.537267,226.006076 182.634191,225.521232 C184.359453,216.716456 188.721069,203.4899 194.769176,185.201566 L195.558933,182.757232 C195.65873,182.44765 195.757808,182.137349 195.854733,181.827049 L197.114755,178.122837 L198.843916,172.867406 L200.548963,167.646894 L200.850209,166.761099 L201.20086,165.771962 L201.494598,164.979011 L201.705381,164.429672 L201.928324,163.866025 L202.159823,163.299091 L202.403426,162.722014 C204.900521,156.906687 209.237282,149.846708 216.1314,149.846708 L216.305865,149.846708 C216.616024,149.846708 216.906798,149.904889 217.197572,149.943677 L220.008391,150.661247 C226.893793,153.654694 230.779203,163.891636 232.210048,168.462979 L232.492305,169.395637 C233.461553,172.692579 235.787747,183.514307 239.529044,200.949315 L239.567814,201.18204 L243.634637,219.988274 L244.953256,225.877734 L245.289045,227.304624 C245.419349,227.844298 245.52331,228.252576 245.596537,228.507874 L245.72091,228.851997 L246.121645,230.056404 L246.202534,230.276428 L246.287701,230.489415 L246.378983,230.695059 C247.043653,232.108144 248.292874,232.958929 252.962821,232.774505 L254.093484,232.723571 L255.386619,232.648477 L256.395609,232.580873 L257.575914,232.494197 L258.89923,232.389358 L260.397078,232.263033 L263.013044,232.027812 L266.251417,231.718577 C267.358577,231.61028 268.49034,231.49732 269.637406,231.381361 L277.655423,230.559268 L278.420384,230.494615 C283.474497,230.100706 293.952606,229.862039 305.899,229.715608 L313.410706,229.636517 L319.752324,229.586446 L328.622314,229.535744 L331.588212,229.535744 L338.458367,229.506777 L361.213339,229.444147 L361.770592,229.438775 L362.160391,228.659567 L362.582933,227.797856 L363.040896,226.843361 L363.566006,225.721531 C364.986058,222.646876 366.55126,218.919558 367.951648,214.832452 L368.520562,213.154423 L368.878975,212.11965 L369.238186,211.106449 L369.598708,210.114992 L369.955108,209.161301 C373.381666,200.122804 376.286118,196.289894 380.283227,195.111787 C383.171586,194.239067 386.234409,195.247544 388.483065,197.788129 C390.044064,199.551349 391.125453,201.968881 392.859819,206.40045 L394.532296,210.719448 C394.797583,211.400578 395.077904,212.113212 395.36549,212.830178 L395.65521,213.547581 C396.772878,216.295446 397.95922,218.973863 398.776477,220.052186 C399.99773,221.681264 403.254403,224.008517 405.851987,225.889713 L407.118786,226.802434 C410.075182,228.942718 413.00746,231.172095 415.331232,233.802375 C417.326742,236.054335 419.046168,238.977092 420.673565,241.942402 L421.708884,243.848353 C422.057813,244.488347 422.464897,245.225311 422.871981,245.962274 L423.081526,245.245398 L423.301157,244.452432 L423.453245,243.879608 L423.702082,242.902583 L423.979081,241.759792 L424.171053,240.935409 L424.368929,240.059154 L424.572763,239.129437 C424.814066,238.012961 425.067643,236.784087 425.333871,235.431453 L425.490132,234.573608 L425.662617,233.534382 L425.845073,232.36303 L426.070122,230.845422 C427.956001,217.853824 431.868611,184.680951 435.999721,148.332625 L438.322372,127.772701 L440.874496,104.924416 L443.148648,84.3539183 L443.613886,80.1260743 L447.530474,44.061334 L449.417061,26.2166022 L449.977287,20.6218763 L450.05455,19.7800422 L450.107848,19.132641 C450.883246,8.52424461 456.582423,0.320676295 463.367159,0.049163195 C465.570981,-0.213288693 467.897176,0.575060763 470.345744,2.41420856 C472.794312,4.25335736 474.646449,9.45840612 475.902156,18.0293558 Z" id="Shape" fill="#000000" fill-rule="nonzero"></path>
    </g>
</svg>