<svg height="22" viewBox="0 0 22 22" width="22" xmlns="http://www.w3.org/2000/svg"><g fill="none" fill-rule="nonzero"><path d="m15.6564885 2.76977546.0764027 1.26618306 5.2671088.07913644v15.11506034h-20l.07640266-15.11506034h10.61062024l.0764027-1.3453195zm3.9694657 2.69063901h-17.2519084v12.42449053h17.2519084z" fill="#000"/><path d="m12.265976 16.4604491h-6.57952687l.03856559-1.4599832-1.02819652-.0005005.15695604-1.3653285-.46478125-.0192539c-.11789723-.0063484-.24675139-.0138775-.38899299-.0221888v-3.93861618h.86810506v-1.87924088l1.11803349-.13413814.04634832-.75632858h5.87719703l-.1021676 1.77166058 1.1869483-.00181589-.0003939 2.34506039 1.0059293.0001899v3l-1.0059293-.0001899.0003939 1.6549396-.7285124-.0009396z" fill="#000"/><path d="m7.79395992 1.34531951h3.89306298c-.0382013.67266667-.0382013.67266667-.0762691 1.3453195-1.94666506-.03956129-1.94666506-.03956129-3.89319655-.07913644.03820133-.63309153.03820133-.63309153.07640267-1.26618306z" fill="#020202"/><path d="m15.7560524 1.34531951h1.9615049c-.0192476.67266667-.0192476.67266667-.0384279 1.3453195-.9808197-.03956129-.9808197-.03956129-1.9615721-.07913644.0192475-.63309153.0192475-.63309153.0384951-1.26618306z" fill="#020202"/><path d="m15.8091603 6.88487042h1.2213741v2.69063901c-.6488884 0-.6488884 0-1.2976432 0 .0380678-1.34525027.0380678-1.34525027.0762691-2.69063901z" fill="#030303"/><path d="m15.8091603 10.9999654h1.2213741v2.690639c-.6488884 0-.6488884 0-1.2976432 0 .0380678-1.3452503.0380678-1.3452503.0762691-2.690639z" fill="#040404"/><path d="m5.1221374 0h2.51915076v1.26618307c-1.29777671 0-1.29777671 0-2.59541985 0 .03806776-.63309154.03806776-.63309154.07626909-1.26618307z" fill="#000"/></g></svg>