<svg height="22" viewBox="0 0 22 22" width="22" xmlns="http://www.w3.org/2000/svg"><g fill="none" transform="translate(1 4)"><path d="m10.6107538 15.1150603c-5.30544368 0-5.30544368 0-10.6107538 0 0-7.51789267 0-7.51789267 0-15.03592386 7.97713263-.0395613 7.97713263-.0395613 15.9542653-.07913644v6.80580321c-.6488884 0-.6488884 0-1.2977768 0 0-1.38499158 0-1.38499158 0-2.76984469-4.4274809 0-8.85522892-.05220374-13.2824427 0-.07199482.00083083-.15213747.08363677-.15267175.15827288-.0249778 3.19190572.05089058 6.383673.07640266 9.5755787 4.65642176.0394643 4.65642176.0394643 9.31297709.0790672z" fill="#020202"/><path d="m17.3283111 8.30932637v1.34538874h1.2976431v1.34525029l1.2977767.0792057.0762691 4.0358892-1.2976431.0792057-.0764027 1.3452503h-5.2671088v-1.424456h-1.3740458v-5.38127798l1.3740458-.07906721.0762691-1.34538874zm-1.2977767 1.34538874h-1.2976432l-.0764027 2.76970619-1.2976431.0792057v1.2661831h2.671689z" fill="#030303"/><g fill="#000"><path d="m9.38937976 5.53962015h1.22137404v1.26618306c-.64888835 0-.64888835 0-1.2977767 0 .03820133-.63309153.03820133-.63309153.07640266-1.26618306z"/><path d="m6.71755725 5.53962015h1.22137405v1.26618306c-.64888836 0-.64888836 0-1.29764314 0 .03806776-.63309153.03806776-.63309153.07626909-1.26618306z"/><path d="m12.0610687 5.53962015h1.221374v1.26618306c-.6488883 0-.6488883 0-1.2976431 0 .0380678-.63309153.0380678-.63309153.0762691-1.26618306z"/><path d="m4.04586831 8.30932637h1.22137405v1.26618306c-.64888836 0-.64888836 0-1.29777671 0 .03820133-.63309153.03820133-.63309153.07640266-1.26618306z"/><path d="m6.71755725 11.0791711h1.22137405v1.266183c-.64888836 0-.64888836 0-1.29764314 0 .03806776-.6330915.03806776-.6330915.07626909-1.266183z"/><path d="m9.38937976 11.0791711h1.22137404v1.266183c-.64888835 0-.64888835 0-1.2977767 0 .03820133-.6330915.03820133-.6330915.07640266-1.266183z"/><path d="m6.71755725 8.30932637h1.22137405v1.26618306c-.64888836 0-.64888836 0-1.29764314 0 .03806776-.63309153.03806776-.63309153.07626909-1.26618306z"/><path d="m9.38937976 8.30932637h1.22137404v1.26618306c-.64888835 0-.64888835 0-1.2977767 0 .03820133-.63309153.03820133-.63309153.07640266-1.26618306z"/><path d="m4.04586831 11.0791711h1.22137405v1.266183c-.64888836 0-.64888836 0-1.29777671 0 .03820133-.6330915.03820133-.6330915.07640266-1.266183z"/></g></g></svg>