<svg height="1000" viewBox="0 0 1000 1000" width="1000" xmlns="http://www.w3.org/2000/svg"><g fill="none" fill-rule="evenodd"><g stroke="#000" stroke-width="3" transform="matrix(-1 0 0 1 995 63.5)"><circle cx="60" cy="436.5" r="58.5"/><circle cx="106.5" cy="436.5" r="105"/><circle cx="166" cy="436.5" r="164.5"/><circle cx="247.5" cy="436.5" r="246"/><circle cx="329.5" cy="436.5" r="328"/><circle cx="390" cy="436.5" r="388.5"/><circle cx="436.5" cy="436.5" r="435"/></g><g stroke="#000" stroke-width="3"><circle cx="65" cy="499.5" r="58.5"/><circle cx="111.5" cy="499.5" r="105"/><circle cx="171" cy="499.5" r="164.5"/><circle cx="252.5" cy="499.5" r="246"/><circle cx="334.5" cy="499.5" r="328"/><circle cx="395" cy="499.5" r="388.5"/><circle cx="441.5" cy="499.5" r="435"/></g><g fill="#000" fill-rule="nonzero"><path d="m476.523772 271.412287c2.447732 1.837685 4.299237 7.038591 5.554515 15.602719l.610975 6.003816 1.563096 16.038197 3.401975 35.687888c2.086403 22.042552 4.559296 48.376703 7.116998 75.789553l1.923259 20.644982 1.901114 20.471031c.600729 3.798155 1.104566 7.615688 1.530889 11.4526l1.472754 21.277421 4.393911 48.18431 2.407888 26.557958 2.013176 23.049347.525386 6.134437.68906-5.425703.409482-3.275869.410908-3.338332.409006-3.385257.794512-6.66615.930161-7.866172 2.737162-22.727283 1.066071-8.487257.349092-2.626551.18961-1.370222.105819-.742078c.103473-.716593.200003-1.357321.290469-1.927473l.133587-.816708.143221-.810838.106934-.55193c.051871-.255085.101417-.479259.148944-.674372l.776343-3.216231.414362-1.654546c2.16456-8.447882 5.782157-19.254591 13.633727-20.340447l.2679-.033321.488036-.048017.396388-.031907c3.426234-.256088 11.427525-.402776 19.80629-.481206l5.505984-.042083 6.236097-.027875 4.089391-.007918 7.623307.012197 2.249657.020645c.678242.019379 1.39524.077514 2.170374.135649l.709529.064014.484074.036168.30131.015841c2.442317.099556 3.197104-.660802 4.327794-5.936942l1.449736-6.809351 1.674947-7.757853 2.053913-9.416786 1.949147-8.860358 1.646766-7.43224 3.051386-13.631998 2.449-10.774972 1.282964-5.560103 1.112628-4.752473.679202-2.85653.519918-2.150076.356277-1.402821.208969-.779092.229343-.816727.16469-.562351.17446-.574514c1.884118-6.089869 5.431067-13.889375 12.128447-13.889375h.155026l.277392.01212.280995.021545c4.099365.383235 9.258075 3.903062 12.133091 17.720789l.098229.480566c.796387 3.920677 2.101138 11.980888 3.646406 21.808268l2.44792 15.592568 1.25887 7.936938 1.474031 9.137299 1.058151 6.38382.688823 4.029841.380019 2.16169.427126 2.357311.407007 2.147004.198996 1.000302c.256399 1.262561.476318 2.234805.650622 2.849332l.074222.248677c.279048.883653.530191 1.753353.765987 2.604915l.815116 2.996733.333928 1.170778.16757.557151.169974.5371c1.060825 3.251989 1.856783 3.705888 4.263727 3.93673l.569536.048094.445621.029088.796208.040096.664437.025679 1.509051.041953.918866.018058 2.025453.027151 2.851712.019804h2.945508l4.374031-.018437 4.523022-.032527 7.198084-.069981 8.850392-.10473 10.487771-.128706 6.83034-.060883c3.568663-.025456 6.633909-.036534 9.245465-.03832l7.332403.023343 3.863227.045938.557631.010074 1.151245.025418.224952-.005037.28847-.017051.337116-.030559.380537-.045552c2.336269-.312329 6.62188-1.465617 8.1868-4.785143l.747406-1.596235.766323-1.657296.777826-1.70005 1.03453-2.284619 2.359049-5.290283 2.87597-6.571102 1.728796-4.018778 1.143322-2.69359 2.189753-1.317727c2.649875-1.589925 6.704802-2.403375 10.286791.033536l.255027.179626c1.650046 1.19486 4.469529 4.116034 5.115619 10.289595l.108551 1.136184.076137.713341.081511.682936.086996.652436c.621138 4.408025 1.490333 5.517727 2.14303 5.917327l1.40714.806196c3.432842 1.974497 6.994367 4.130924 9.952414 6.815395 1.356484 1.304808 2.33832 2.351239 2.945508 3.139291.910782 1.182079 1.705294 2.46105 2.325401 3.856291l.286384-1.066657.421773-1.621634.27485-1.086469c.183118-.731211.365874-1.475332.547468-2.227033l.540499-2.272523.266138-1.143331.765802-3.370177.81415-3.697997.768218-3.579752.953816-4.525544.354392-1.764839c1.060945-5.419981 3.030358-16.442191 5.459111-30.480724 1.619168-9.359022 2.051951-11.897585 1.298349-7.615689l2.295008-13.498519 1.757398-10.434785 1.982847-11.865386 2.003954-12.087792 2.209305-13.442324 2.217643-13.629084 1.977812-12.293317 1.532538-9.639756 1.425246-9.050436 1.681577-10.945448c1.655992-10.938577 2.80356-19.098923 3.148727-22.73306l.03366-.369241c.310054-3.468723 1.109891-6.879411 1.53089-8.700876.245582-1.062521.612575-2.120147 1.100978-3.172879l.216749-.450871c3.220357-6.917099 8.033426-7.388402 9.980239-7.273212l.096499.006334c6.522467.510454 11.366476 8.786078 11.472926 19.374474l.002909 1.725973.058028 3.121408c.128533 5.624372.449089 16.180511.907033 30.076261l.012172.090806c.04591.534907.145204 3.392011.297882 8.571313l.97293 28.172607.823975 22.958764.218442 5.995984.11627 3.081156 1.245767 33.917632 2.327343 61.650751 1.948796 49.667716.969839 23.62678.58854-3.774358 1.036197-6.575745 1.456735-9.078906 1.092395-6.660321 1.183562-7.041107.846909-4.900698.821074-4.613388.518102-2.825083.675626-3.558489.435257-2.198991c.849859-4.209476 1.571183-7.253668 2.081205-8.516344 1.840943-4.553911 5.270909-7.751338 9.204713-9.786064l2.964886-1.27897c2.887373-1.007674 5.891016-1.492133 8.662119-1.433998l20.386017.426324c.096892-.290675.193783-.678242.290675-1.162701l.16762-.835882.186666-.878613.206749-.924421c1.683396-7.351964 4.861452-17.30892 9.102468-30.181689l5.459845-16.534782.899848-2.741329.913476-2.802129 1.007674-3.061778.311116-.904639.355869-.992616.198047-.532318.210078-.549109.338058-.850848.236997-.573157.245118-.573318.257124-.580851c2.544072-5.645555 6.793122-12.096814 13.389024-12.096814h.174405c9.380941.221597 14.397725 13.658851 15.989431 18.847059l.210863.705689c.213162.736377.503837 1.860321.852647 3.371831l.852647 3.740021.696804 3.126181 1.375244 6.292317 6.675391 30.938228 1.215323 5.5195c.68141 3.054689 1.200689 5.288942 1.431704 6.077111l.168824.471591.061856.186342.059995.194714c.736377 2.228509 1.162701 3.643128 7.073095 3.410588l2.122314-.116961.299979-.018687.889328-.166872-.057604.812026-.092925 1.225305-.169429 2.049812-.183019 2.040291-.209963 2.199728-.519933 5.118129c-.182672 1.763968-.34697 3.351093-.468296 4.659442l-.07011.77267-1.075262.047704c-14.650027.581351-19.165181-8.216417-21.316177-14.882567l-.224255-.709941-.175164-.541119-.231183-.806265c-.848164-3.10736-2.445178-10.380986-6.345601-28.599213l-.11627-.503837-3.461849-16.062943-1.492855-6.780782-.843162-3.703621-.357849-1.502532-.229154-.910969-.145633-.532991c-.58135-2.015347-1.356484-3.875668-2.092861-5.309666l-.329432-.038756-.209978.438566-.219445.483059-.228722.5302-.23781.579994c-.363436.90866-.756903 1.994316-1.177527 3.297225l-1.78636 5.45983-7.292795 22.12663-1.353681 4.158452c-2.980155 9.214516-5.231909 16.638521-6.28385 21.640014l-.142472.700029c-1.511511 7.71258-4.708938 11.471978-7.131231 13.274164-3.449345 2.57732-6.840555 2.402915-8.64274 2.054105l-19.630262-.34881c-1.705294-.038757-3.197426.290675-4.398883.716998l-2.616077 1.375863c-.096891.077513-.193783.155026-.251918.23254l-.11737.467349-.193242.836312-.167967.773364-.326241 1.584498-.409509 2.092889-.598199 3.192577-.692896 3.833236c-.030261.169898-.060687.341011-.091274.513318-1.782808 21.955662-5.174018 43.581893-10.115495 64.762421l-.658864 2.80986-.813609 5.624101-.475513 3.387648-.123031.837214-.132455.859793-.143259.878161c-.820166 4.872674-4.17363 11.944308-5.152688 13.391767-.652705.964972-2.46135 1.714268-5.425936 2.247888-7.048036-.12212-9.588541-9.447772-11.212888-19.889292l-.117272-.765888-.115675-.77845-.288782-2.034934-.033933-.295137c-.156658-1.504697-.390479-5.56454-.672346-11.466127-.187911-3.93439-.239586-5.038956-.155026-3.313696l-.543253-12.050337-.811693-19.243994-.896216-22.238775-.534475-13.593474-1.49428-38.928126c-.439811-11.624645-.834344-22.185645-1.146019-30.581989l-1.522871-41.475829c.259643 7.50843.394999 11.460359.406066 11.855788l-.000331.014503-.607537-17.096268-1.140412-32.483607-1.130998-32.48366c-.065401-1.938021-.128645-3.821402-.189639-5.647414-.193784 0-.406946-.019378-.620107-.019378l-1.282596 8.211797-1.187404 7.504702-1.767901 11.04041-1.233905 7.628492-1.01201 6.215889-1.548928 9.449607-1.594199 9.65109-3.842871 22.99172.139256-.705349c-.061692.39692-.27027 1.657478-.796254 4.78786-1.027786 6.116839-2.066212 12.233414-3.115278 18.349726l-3.002916 17.403928-2.053727 11.641604-.783294 4.341902-.931781 5.035229c-.290115 1.535184-.540654 2.821485-.747135 3.832172l-1.02996 4.91733-.691969 3.248668-.643894 2.970699-.60152 2.717755c-4.752611 21.222412-8.141673 30.042907-14.88469 31.443631-.992351.204957-2.000025.243714-3.023022.11627s-1.933779-.405201-2.732346-.833269c-1.089993-.684419-2.013694-1.382039-2.771103-2.092861-.735132-.689915-1.047897-1.08066-1.325308-1.484297l-.485199-.722646c-1.967186-2.837196-3.231447-6.211411-4.080509-8.470524l-.096892-.23254-.285651-.778722c-.188042-.506708-.373213-.984707-.566996-1.411031-.891404-1.666537-7.59631-5.464692-9.786063-6.724285-3.526858-2.015347-6.278583-5.348422-8.158282-9.921711l-.940579 2.104868-1.252086 2.76535-1.226566 2.665808-1.13468 2.424442c-6.243423 13.24195-19.523327 14.021277-22.206081 14.049373l-.330932-.000074-3.313696-.077514-.233203-.017167-.315916-.016954-.583624-.021603c-1.007033-.030136-2.467738-.04437-4.254245-.046746l-2.189852.002263-4.002131.022006-6.003837.055927-4.824813.055212-8.287674.102711h-.251919l-9.994918.126318-6.858648.072033-5.44837.044184-6.067957.028761-5.193396-.019378-2.310487-.016163-1.343627-.016408c-2.745924-.040037-4.906615-.115-6.267598-.238726-12.608292-1.088485-16.317249-11.959446-18.202109-18.780393l-.439856-1.625002c-.180865-.684701-.370342-1.369403-.568432-2.048362l-.451648-1.504105-.19702-.717756-.114907-.448233-.17861-.734333-.282335-1.240971-.230496-1.074468-.165565-.800831-.257559-1.287674c-.613882-3.12471-1.318226-7.086772-2.114554-11.810369l-.831837-5.003796-.819456-5.036622-.693663-4.322134-4.997388-31.619376-.594461-3.684318-.543694-3.29265-.73546 3.143006c-1.452274 6.239069-3.138969 13.663794-4.874031 21.404026l-3.458101 15.546493c-2.916695 13.206087-5.617387 25.659498-7.190838 33.098476-4.55391 21.490582-16.820401 20.405395-21.413068 19.99845l-.193784-.019379c-.290675-.029067-.58135-.058135-.855675-.070852l-2.435231-.030285-4.530599-.013353-5.617669.006404-4.327098.016036-2.249483.011786-4.11151.027839-7.454049.075113-4.944977.075111-3.452558.073322c-1.851377.046318-3.393215.098931-4.494448.158311l-.134133.287449-.144711.333698-.163969.404772-.187918.495347c-.585442 1.592187-1.361097 4.144266-2.360169 8.209694l-.594093 2.458018-.080331.406352-.128697.766836-.134729.88595-.163081 1.139419-.211967 1.550697-.415952 3.181524-.507065 4.023859-.524093 4.257527-1.156022 9.581155-.980055 8.215672-.019378.213162-1.197907 10.028878-1.047282 8.661915-.81465 6.619689-.538224 4.295684-.455854 3.578084-.596886 4.58414-.716998 5.251531-.200456 1.505838-.198112 1.461466c-.291629 2.130769-.574638 4.105476-.844995 5.879764l-.190435 1.22967c-2.278893 14.688328-6.563843 22.204057-12.761337 22.381986h-.357801c-.155027-.012919-.310053-.017225-.453597-.024402l-.205266-.014355c-6.255856-.396897-10.613091-8.001176-11.705375-20.385799l-.163978-1.986821-5.009184-53.086646-.81389-8.448958-6.885259-72.737154-4.593127-48.944611-3.559208-38.325211-.736377-8.371444-2.507197-27.417214c-1.887999-20.823822-3.444482-38.483264-4.43025-50.599994l-4.413626 40.638505-1.59366 14.531637-.542594 4.689559-1.8255 16.416762-1.117302 9.979142-2.999562 26.505397c-4.516625 39.564569-8.702778 74.523581-10.254383 83.028682l-.273269 1.410564-.345723 1.717128-.352962 1.688153-.272027 1.250256-.2794 1.234689-.287776 1.217348-.199457.810889-.206683.81185-.214558.812412c-2.643138 9.819112-6.503988 17.213772-14.279526 17.402617l-.538892.003701c-5.326745-.100505-8.771157-5.138512-11.872726-10.695817l-.363401-.65593-1.98147-3.646562-.561-1.010537-.526226-.922169-.346345-.588742-.339607-.559388-.33016-.522726c-.378622-.58562-.732427-1.08147-1.04206-1.435336-1.492132-1.685915-4.243857-3.662506-6.918068-5.580962l-1.043024-.748083-1.097522-.795911c-3.102595-2.270556-6.117039-4.686561-8.323759-7.602584-2.170375-2.867995-4.069452-7.092474-5.929773-11.723898l-.053111.136367c-.00933.02512-.017943.050957-.024402.076795l-.349691 1.030657-.343845.995664c-3.295056 9.457092-5.748201 14.073331-6.708991 15.704863-1.104566 3.119913-4.922099 8.720254-11.975816 8.720254l-3.207323-.027181c-.65716-.003249-1.390334-.00582-2.192519-.007657l-7.602109.001678-7.781587.027952-6.004225.035339-3.771884.028004-4.108208.019378-6.757722.065369-11.083736.142169-7.370282.124802c-10.92977.20754-20.088175.493203-23.940079.867966l-9.460747.961393-3.965925.384199-3.105689.284208-1.255672.108944-2.381802.193673-1.242143.09231c-1.41335.100905-2.698799.177518-3.829661.224312-14.650027.581351-19.165181-8.216417-21.316177-14.882567l-.213162-.678242-.137542-.415243-.202046-.682807-.317786-1.193218-.297997-1.202297-.532106-2.261077-.718752-3.179597c-.509988-2.288181-1.129661-5.12224-1.890977-8.64152l-6.196561-28.800345-1.282327-5.830527c-.742311-3.333405-1.345389-5.946022-1.695071-7.267761l-.138648-.501579c-.581351-2.015347-1.356484-3.895047-2.092861-5.329044l-11.510736 33.040075-1.104914 3.391675c-3.082761 9.509929-5.41738 17.162403-6.486177 22.26718l-.140868.695691c-1.51151 7.71258-4.708937 11.471979-7.13123 13.274165-3.449345 2.557941-6.859933 2.402914-8.642741 2.054104l-19.630261-.34881c-3.836912-.077514-6.646771 1.62778-7.266878 2.325401l-.116197.456431c-1.069546 4.368545-3.537626 18.579233-6.212519 34.999866l-1.488007 9.227856-1.034168 6.519096-.746937 4.762247-1.44496 9.349888-1.018076 6.713329-.940052 6.317628-.292628 1.996268-.46508 3.255561c-.083973.549054-.163639 1.091647-.240435 1.625628l-.660617 4.666833-.125741.855727-.207265 1.325993-.152788.905734-.160806.889077c-.837802 4.46715-2.199137 9.209874-4.847201 11.938589-1.469402 1.537349-3.226372 2.306023-5.270909 2.306023h-.174405c-6.956825-.11627-9.514766-9.146578-11.142547-19.378343l-.445702-2.906751c-.038757-.387567-.096892-.755755-.155027-1.123944l-.030315-.249977c-.515395-4.72473-2.016425-40.707313-3.554678-80.170145l-.368189-9.417875-.698863-18.20406c-.091299-2.412519-.181467-4.814643-.270054-7.200947l-.368539-9.40046-1.79647-48.502575-1.071174-29.493291-.11627-2.945508-1.608403-45.868538-.11627-3.081156-.600728-17.905589-1.146268 7.375242-1.162764 7.375537-.733368 4.608186-2.179897 13.606281-1.36521 8.432544-1.684919 10.319795-1.141921 6.946243-1.437525 8.695292-.484459 3.023021-3.8380505 22.884558-2.2401532 13.22543-1.8347643 10.713727-1.1754746 6.796159-2.058837 11.724114-.8599961 4.791077-.8588052 4.682598c-.3527471 1.894574-.6583864 3.493099-.9104691 4.758933l-.2339917 1.15358-.9644843 4.587084c-5.9641937 28.139497-9.3137887 39.08298-17.1930229 40.39005-8.4295791 1.375862-12.2277343-8.720255-14.0299201-13.56484l-.1356484-.348811-.3255562-.86939c-.1627781-.425083-.3255562-.832028-.4883342-1.204092-.9107821-1.666538-7.5963104-5.464693-9.7860631-6.724285-3.5462368-2.015348-6.2979614-5.348423-8.1776607-9.921712l-1.5589252 3.464707-1.1606189 2.547287-1.0797749 2.33791-.7545915 1.610564c-3.333075 7.073096-8.6814976 10.580576-13.3322998 12.324626l-1.3319123.368178-.0590478-1.760356-.0318118-1.322324c-.0163552-.185106-.0163552-.365815-.0163552-.542666v-1.855046l.0158393-1.570994.0544156-2.942966.0260449-1.896665.0089916-1.307008-.0029893-2.305745-.0423226-1.950958.014095-1.247014.0331403-1.37421 1.2156422-1.085187c.2325401-.329432.4457019-.658864.620107-1.027052l.7697113-1.6412.7895266-1.706051.8012532-1.750865.8048909-1.775638 1.3799159-3.077384 2.167138-4.903151 1.9838168-4.553276 1.5936473-3.710798 1.1433222-2.69359 2.1897527-1.317727c2.712968-1.627781 6.8986901-2.441672 10.5418185.213161l.2215805.165767.2387441.190676c1.6689489 1.377523 4.0660388 4.302665 4.655294 9.933152l.1085513 1.138147.0761369.715075.081511.684402.0869963.653636.0974541.653465c.6122627 3.872591 1.4263497 4.87895 2.0455753 5.257519l2.0934384 1.200955.8088401.471824.8300803.492447c5.2556233 3.149329 10.4354316 6.899149 12.8981045 12.451927l.2863844-1.066656c1.4351712-5.417949 2.9104783-12.048577 4.0388961-17.311715l1.4401875-6.825352.4629132-2.35266.6879326-3.664602.8609447-4.731562 1.2243239-6.884798 1.6952628-9.716721.4844586-2.887373 1.4359696-8.35352 1.7369324-10.194729 2.624125-15.545215 1.3535814-8.07381.5232153-3.178048 1.0956838-6.557685 1.4905655-8.990956.9859757-5.990583 1.2518419-7.655454 1.6289212-10.046466.6007287-3.681885 2.8496395-17.823072 1.7172421-10.956539c.8823985-5.688157 1.6697907-10.868692 2.3318079-15.364254l1.027752-7.280841.531994-3.918414.213961-1.666447.192961-1.593703.114434-1.023852.087553-.871396.021098-.233208c1.627781-19.010154 10.328657-19.824045 12.944733-19.610883 5.367801.426323 9.611658 6.123556 10.987521 14.02992l.387566 3.216805c.046508.775134.093016 1.550267.099838 2.345245l-.004824 1.043423.017641 1.612701.104981 4.694473.233223 8.228001.813967 25.258202.18855 5.593244.096892 3.003643.945585 26.97255.914736 25.29084.11627 3.003643c.051675 1.537349.111964 3.08331.169381 4.637884l.081804 2.335866.465813 12.44335.54517 14.726729 2.245677 59.283729c1.111099 28.797896 2.159421 55.146076 2.964521 74.330756l.837776-5.364291.853167-5.402798.785772-4.918083.399758-2.478997 1.100318-6.734115 1.184963-7.082365.747982-4.360554c2.005825-11.562263 3.823736-20.921226 4.825866-23.402228 3.584994-8.836524 13.080382-12.634679 20.831719-12.499031l20.386016.426323c.096892-.290675.193784-.678242.290675-1.1627 1.724673-8.797768 6.0848-22.013797 12.130843-40.287575l.789488-2.442389c.099763-.309335.198807-.619389.295699-.929442l1.259592-3.701264 1.728571-5.251248 1.704465-5.216357.301143-.88509.350531-.98835.293638-.79232.210711-.548902.222867-.563198.23142-.566483.24352-.576617c2.496243-5.810699 6.831524-12.865059 13.723289-12.865059h.174405c.310053 0 .600728.058135.891403.096892l2.80986.716999c6.883052 2.991064 10.767136 13.219859 12.197493 17.787563l.28216.931916c.968917 3.294318 3.294318 14.107433 7.034338 31.528564l.038757.23254 4.065435 18.791266 1.318169 5.884772.335674 1.425755c.13026.539244.234185.947197.307387 1.202292l.124331.343849.400598 1.203448.080861.219849.085138.212818.091251.20548c.664443 1.41196 1.913238 2.262068 6.581591 2.077791l1.130277-.050893 1.292694-.075035 1.008646-.06755 1.179902-.086607 1.322864-.104755 1.497337-.126225 2.615073-.235034 3.237268-.308989c1.106782-.10821 2.238159-.22108 3.384834-.336947l8.01528-.821439.7647-.064601c5.052388-.393596 15.526921-.632073 27.469238-.778387l7.509143-.079028 6.339454-.050032 8.866962-.050661h2.964886l6.867811-.028944 22.747206-.06258.557063-.005368.389666-.778588.422398-.861025.457806-.953735.524931-1.120937c1.419567-3.072208 2.984235-6.79656 4.384145-10.880413l.56872-1.676693.358291-1.03395.359088-1.012394.360399-.990668.356279-.952932c3.425388-9.031303 6.328849-12.861162 10.324594-14.038332 2.887373-.872025 5.949151.135649 8.197039 2.674212 1.560467 1.761817 2.641487 4.177425 4.375261 8.605466l1.671906 4.315561c.265196.680588.545422 1.392655.83291 2.10905l.289621.716832c1.117286 2.745678 2.303223 5.421963 3.120202 6.499428 1.220836 1.627781 4.476397 3.953182 7.073095 5.832881l1.266367.911994c2.955387 2.138581 5.886664 4.366183 8.209643 6.99437 1.994829 2.250168 3.713668 5.170598 5.34051 8.133548l1.034965 1.904434c.34881.639485.755755 1.375862 1.1627 2.112239l.209474-.716306.219556-.792335.152036-.572368.248752-.976247.276905-1.141881.191906-.823727.197808-.875558.203765-.928977c.241221-1.115587.494711-2.343483.760848-3.695041l.156208-.857162.172426-1.038399.182394-1.170419.224972-1.516401c1.885235-12.981257 5.79651-46.127728 9.92621-82.447124l2.321859-20.54356 2.551253-22.8301 2.273375-20.554125.46508-4.224479 3.915251-36.036036 1.885943-17.830529.560035-5.590273.077237-.841164.053279-.646886c.775134-10.599953 6.472366-18.796992 13.254786-19.068289 2.20307-.262243 4.528471.525479 6.976204 2.363163zm504.767072 255.291282c-.077513.968917-.135648 1.937835-.193783 2.906752-.23596.37153-.255041-.390801-.144991-1.923365l.07693-.972956z"/><path d="m500 0c276.142375 0 500 223.857625 500 500s-223.857625 500-500 500-500-223.857625-500-500 223.857625-500 500-500zm0 18c-266.201249 0-482 215.798751-482 482s215.798751 482 482 482 482-215.798751 482-482-215.798751-482-482-482z"/></g></g></svg>