<svg height="580" viewBox="0 0 1000 580" width="1000" xmlns="http://www.w3.org/2000/svg"><g><g transform="translate(0 531.980057)"><path d="m314.59849 44.934516h5.618745v-5.6210858-5.6210859h-5.618745v5.6210859z"/><path d="m308.979745 28.071259h5.618745v5.621086h-5.618745z"/><path d="m314.59849 11.2250863v.0170854 5.5869151h-5.618745-5.618745-5.601667v-5.5698297h-5.618745v5.6210858h5.618745-5.618745v5.6210858h5.618745v-.0512561h5.601667v5.6210859h5.618745v-5.6210859h5.618745v-5.6040004h5.618745v-5.6040005-.0170854-5.60400046h-5.618745z"/><path d="m303.361 5.62108584h5.618745 5.618745v-5.62108584h-5.618745-5.618745-5.601667-5.618745v5.62108584h5.618745z"/><path d="m292.140588 5.621086h5.618745v5.621086h-5.618745z"/><path d="m292.140588 22.518514h5.618745v5.621086h-5.618745z"/><path d="m292.140588 28.1396h5.618745v5.621086h-5.618745z"/><path d="m292.140588 33.760686h5.618745v5.621086h-5.618745z"/><path d="m292.140588 39.398857h5.618745v5.621086h-5.618745z"/><path d="m230.334392 16.8290868h-5.618745-5.618745-5.618745v-11.02006192h-5.618745v39.21091802h5.618745v-22.5697703h5.618745 5.618745 5.618745v22.3818312h5.618745v-39.21091796h-5.618745z"/><path d="m224.715647 0h-5.618745-5.618745v5.62108584h5.618745 5.618745 5.618745v-5.62108584z"/><path d="m393.260922 0h-5.618746-5.618745-5.618745v5.62108584h5.618745 5.618745 5.618746 5.618745 5.618745v-5.62108584h-5.618745z"/><path d="m393.260922 39.3134302h-5.618746-5.618745v-5.5527444h-5.618745v5.6210858h5.618745v.0170854h-5.618745v5.6210859h5.618745v-.0854269h5.618745 5.618746 5.618745 5.618745v-5.6210858h-5.618745z"/><path d="m376.404686 5.621086h5.618745v5.621086h-5.618745z"/><path d="m376.404686 16.8803429v5.6210858h5.618745v-.0512561h5.618745 5.618746 5.618745v-5.6210858h-5.618745-5.618746-5.618745v-5.5698297h-5.618745v5.6210858h5.618745z"/><path d="m376.404686 22.518514h5.618745v5.621086h-5.618745z"/><path d="m376.404686 28.1396h5.618745v5.621086h-5.618745z"/><path d="m679.765686 44.934516h5.618745v-5.6210858-5.6210859h-5.618745v5.6210859z"/><path d="m674.146941 28.071259h5.618745v5.621086h-5.618745z"/><path d="m679.765686 11.2250863v.0170854 5.5869151h-5.618745-5.618745-5.618745v-5.5698297h-5.618745v5.6210858h5.618745-5.618745v5.6210858h5.618745v-.0512561h5.618745v5.6210859h5.618745v-5.6210859h5.618745v-5.6040004h5.618745v-5.6040005-.0170854-5.60400046h-5.618745z"/><path d="m668.528196 5.62108584h5.618745 5.618745v-5.62108584h-5.618745-5.618745-5.618745-5.618745v5.62108584h5.618745z"/><path d="m657.290706 5.621086h5.618745v5.621086h-5.618745z"/><path d="m657.290706 22.518514h5.618745v5.621086h-5.618745z"/><path d="m657.290706 28.1396h5.618745v5.621086h-5.618745z"/><path d="m657.290706 33.760686h5.618745v5.621086h-5.618745z"/><path d="m657.290706 39.398857h5.618745v5.621086h-5.618745z"/><path d="m994.364177 28.0712585v5.6210858 5.6210859h5.618745v-5.6210859-5.6210858-5.6210859h-5.618745z"/><path d="m988.745432 16.8290868h-5.618746-5.618745v-5.5698297h-5.618745v5.6210858h5.618745v5.5698297h5.618745 5.618746 5.618745v-5.6210858z"/><path d="m994.364177 5.621086h5.618745v5.621086h-5.618745z"/><path d="m977.507941 0v5.62108584h5.618745 5.618746 5.618745v-5.62108584h-5.618745-5.618746z"/><path d="m971.889196 5.621086h5.618745v5.621086h-5.618745z"/><path d="m971.889196 33.760686h5.618745v5.621086h-5.618745z"/><path d="m983.126686 39.398857h-5.618745v5.6210859h5.618745 5.618746 5.618745v-5.6210859h-5.618745z"/><path d="m825.818902 5.621086h5.618745v5.621086h-5.618745z"/><path d="m825.818902 11.259257h5.618745v5.621086h-5.618745z"/><path d="m825.818902 16.880343h5.618745v5.621086h-5.618745z"/><path d="m825.818902 22.518514h5.618745v5.621086h-5.618745z"/><path d="m825.818902 28.1396h5.618745v5.621086h-5.618745z"/><path d="m825.818902 33.760686h5.618745v5.621086h-5.618745z"/><path d="m820.217235 5.62108584h5.601667v-5.62108584h-5.601667-5.618745-5.618745v5.62108584h5.618745z"/><path d="m803.361 5.621086h5.618745v5.621086h-5.618745z"/><path d="m803.361 11.259257h5.618745v5.621086h-5.618745z"/><path d="m803.361 16.880343h5.618745v5.621086h-5.618745z"/><path d="m803.361 22.518514h5.618745v5.621086h-5.618745z"/><path d="m803.361 28.1396h5.618745v5.621086h-5.618745z"/><path d="m803.361 33.760686h5.618745v5.621086h-5.618745z"/><path d="m814.59849 39.398857h-5.618745v5.6210859h5.618745 5.618745 5.601667v-5.6210859h-5.601667z"/><path d="m910.100079 11.259257h5.618745v5.621086h-5.618745z"/><path d="m910.100079 16.880343h5.618745v5.621086h-5.618745z"/><path d="m910.100079 22.518514h5.618745v5.621086h-5.618745z"/><path d="m910.100079 28.1396h5.618745v5.621086h-5.618745z"/><path d="m910.100079 33.760686h5.618745v5.621086h-5.618745z"/><path d="m893.243843 5.62108584v-5.62108584h-5.618745v5.62108584 5.62108586h5.618745z"/><path d="m910.100079 5.62108584v5.62108586h5.618745v-5.62108586-5.62108584h-5.618745z"/><path d="m887.625098 11.259257h5.618745v5.621086h-5.618745z"/><path d="m887.625098 16.880343h5.618745v5.621086h-5.618745z"/><path d="m887.625098 22.518514h5.618745v5.621086h-5.618745z"/><path d="m887.625098 28.1396h5.618745v5.621086h-5.618745z"/><path d="m887.625098 33.760686h5.618745v5.621086h-5.618745z"/><path d="m898.862588 39.398857h-5.618745v5.6210859h5.618745 5.618745 5.618746v-5.6210859h-5.618746z"/><path d="m595.501588 16.8290868h-5.618745-5.618745-5.618745v-11.02006192h-5.618745v39.21091802h5.618745v-22.5697703h5.618745 5.618745 5.618745v22.3818312h5.618745v-39.21091796h-5.618745z"/><path d="m589.882843 0h-5.618745-5.618745v5.62108584h5.618745 5.618745 5.618745v-5.62108584z"/><path d="m741.554804 0h5.618745v5.621086h-5.618745z"/><path d="m741.554804 5.621086h5.618745v5.621086h-5.618745z"/><path d="m741.554804 11.259257h5.618745v5.621086h-5.618745z"/><path d="m741.554804 16.880343h5.618745v5.621086h-5.618745z"/><path d="m741.554804 22.518514h5.618745v5.621086h-5.618745z"/><path d="m741.554804 28.1396h5.618745v5.621086h-5.618745z"/><path d="m741.554804 33.760686h5.618745v5.621086h-5.618745z"/><path d="m741.554804 39.398857h5.618745v5.621086h-5.618745z"/><path d="m500 39.3134302v5.6210858h5.618745v-5.6210858-5.6210859h-5.618745z"/><path d="m494.381255 28.0712585v-5.5527444h-5.618745v5.6040005h5.618745v5.5698297h5.618745v-5.6210858z"/><path d="m511.220412 0h5.618745v5.621086h-5.618745z"/><path d="m511.220412 5.621086h5.618745v5.621086h-5.618745z"/><path d="m511.220412 11.259257h5.618745v5.621086h-5.618745z"/><path d="m511.220412 16.880343h5.618745v5.621086h-5.618745z"/><path d="m511.220412 28.0712585h-5.601667v5.6210858h5.601667v-5.5698297h5.618745v-5.6040005h-5.618745z"/><path d="m488.76251 0h5.618745v5.621086h-5.618745z"/><path d="m488.76251 5.621086h5.618745v5.621086h-5.618745z"/><path d="m488.76251 11.259257h5.618745v5.621086h-5.618745z"/><path d="m488.76251 16.880343h5.618745v5.621086h-5.618745z"/><path d="m22.47498 28.071259h5.618745v5.621086h-5.618745z"/><path d="m11.23749 28.071259h5.618745v5.621086h-5.618745z"/><path d="m22.4749804 16.8290868h-5.6187451v5.6210858 5.6210859h5.6187451v-5.6210859z"/><path d="m0 0h5.618745v5.621086h-5.618745z"/><path d="m0 5.621086h5.618745v5.621086h-5.618745z"/><path d="m0 11.259257h5.618745v5.621086h-5.618745z"/><path d="m0 16.880343h5.618745v5.621086h-5.618745z"/><path d="m0 22.518514h5.618745v5.621086h-5.618745z"/><path d="m5.61874509 28.1396h-5.61874509v5.6210858h5.61874509v5.5527444 5.6210858h5.61874511v-5.6210858-5.6210859h-5.61874511z"/><path d="m33.712471 0h5.618745v5.621086h-5.618745z"/><path d="m33.712471 5.621086h5.618745v5.621086h-5.618745z"/><path d="m33.712471 11.259257h5.618745v5.621086h-5.618745z"/><path d="m33.712471 16.880343h5.618745v5.621086h-5.618745z"/><path d="m33.712471 22.518514h5.618745v5.621086h-5.618745z"/><path d="m33.7124705 33.6923443h-5.618745v5.6210859 5.6210858h5.618745v-5.6210858-5.5527444h5.6187451v-5.6210858h-5.6187451z"/><path d="m112.357824 0h-5.618746-5.618745-5.6187447v5.62108584h5.6187447 5.618745 5.618746 5.618745 5.618745v-5.62108584h-5.618745z"/><path d="m112.357824 39.3134302h-5.618746-5.618745v-5.5527444h-5.6187447v5.6210858h5.6187447v.0170854h-5.6187447v5.6210859h5.6187447v-.0854269h5.618745 5.618746 5.618745 5.618745v-5.6210858h-5.618745z"/><path d="m95.501588 5.621086h5.618745v5.621086h-5.618745z"/><path d="m95.5015883 16.8803429v5.6210858h5.6187447v-.0512561h5.618745 5.618746 5.618745v-5.6210858h-5.618745-5.618746-5.618745v-5.5698297h-5.6187447v5.6210858h5.6187447z"/><path d="m95.501588 22.518514h5.618745v5.621086h-5.618745z"/><path d="m95.501588 28.1396h5.618745v5.621086h-5.618745z"/></g><g transform="translate(0 3)"><path d="m890.562558 0-60.610719 210.115847-60.610718-210.115847h-109.420364l126.413225 438.222586h87.235714l126.430304-438.222586zm-30.177273 420.692999h-60.866892l-116.3029-403.1634121h72.941217l73.795129 255.8021191 73.79513-255.8021191h72.941216z"/><path d="m451.173276 0-60.610718 210.115847-60.610719-210.115847h-99.310038l-60.610719 210.115847-60.610718-210.115847h-109.420364l126.413225 438.222586h87.235714l66.65642-231.045422 66.639342 231.045422h87.235714l126.430303-438.222586zm-30.177272 420.692999h-60.866892l-79.823753-276.731694-79.840831 276.731694h-60.866892l-116.3028995-403.1634121h72.9412166l73.7951289 255.8021191 73.79513-255.8021191h72.941216l73.79513 255.8021191 73.795129-255.8021191h72.941217z"/><path d="m662.772825 262.926717-35.727704-123.834742-16.839157-58.3636145-16.839157 58.3636145-26.949483 93.388618-8.778222 30.446124zm-52.549783-118.965412 29.255047 101.435826h-58.527172z"/><path d="m677.938313 315.515478h-135.447621l-22.901936 79.395702-12.501281 43.311406h18.239574l30.330976-105.177521h109.095877l30.348055 105.177521h18.239574l-12.501281-43.311406z"/></g></g></svg>