<?xml version="1.0" encoding="UTF-8"?>
<svg width="1001px" height="528px" viewBox="0 0 1001 528" version="1.1" xmlns="http://www.w3.org/2000/svg" xmlns:xlink="http://www.w3.org/1999/xlink">
    <title>WAVLogo</title>
    <g id="WAVLogo" stroke="none" stroke-width="1" fill="none" fill-rule="evenodd">
        <g id="WEAREVARIOUS" transform="translate(1.000000, 482.980057)" fill="#000000" fill-rule="nonzero">
            <polygon id="Path" points="314.59849 44.934516 320.217235 44.934516 320.217235 39.3134302 320.217235 33.6923443 314.59849 33.6923443 314.59849 39.3134302"></polygon>
            <polygon id="Path" points="308.979745 28.071259 314.59849 28.071259 314.59849 33.692345 308.979745 33.692345"></polygon>
            <polygon id="Path" points="314.59849 11.2250863 314.59849 11.2421717 314.59849 16.8290868 308.979745 16.8290868 303.361 16.8290868 297.759333 16.8290868 297.759333 11.2592571 292.140588 11.2592571 292.140588 16.8803429 297.759333 16.8803429 292.140588 16.8803429 292.140588 22.5014287 297.759333 22.5014287 297.759333 22.4501726 303.361 22.4501726 303.361 28.0712585 308.979745 28.0712585 308.979745 22.4501726 314.59849 22.4501726 314.59849 16.8461722 320.217235 16.8461722 320.217235 11.2421717 320.217235 11.2250863 320.217235 5.62108584 314.59849 5.62108584"></polygon>
            <polygon id="Path" points="303.361 5.62108584 308.979745 5.62108584 314.59849 5.62108584 314.59849 0 308.979745 0 303.361 0 297.759333 0 292.140588 0 292.140588 5.62108584 297.759333 5.62108584"></polygon>
            <polygon id="Path" points="292.140588 5.621086 297.759333 5.621086 297.759333 11.242172 292.140588 11.242172"></polygon>
            <polygon id="Path" points="292.140588 22.518514 297.759333 22.518514 297.759333 28.1396 292.140588 28.1396"></polygon>
            <polygon id="Path" points="292.140588 28.1396 297.759333 28.1396 297.759333 33.760686 292.140588 33.760686"></polygon>
            <polygon id="Path" points="292.140588 33.760686 297.759333 33.760686 297.759333 39.381772 292.140588 39.381772"></polygon>
            <polygon id="Path" points="292.140588 39.398857 297.759333 39.398857 297.759333 45.019943 292.140588 45.019943"></polygon>
            <polygon id="Path" points="230.334392 16.8290868 224.715647 16.8290868 219.096902 16.8290868 213.478157 16.8290868 213.478157 5.80902488 207.859412 5.80902488 207.859412 45.0199429 213.478157 45.0199429 213.478157 22.4501726 219.096902 22.4501726 224.715647 22.4501726 230.334392 22.4501726 230.334392 44.8320038 235.953137 44.8320038 235.953137 5.62108584 230.334392 5.62108584"></polygon>
            <polygon id="Path" points="224.715647 0 219.096902 0 213.478157 0 213.478157 5.62108584 219.096902 5.62108584 224.715647 5.62108584 230.334392 5.62108584 230.334392 0"></polygon>
            <polygon id="Path" points="393.260922 0 387.642176 0 382.023431 0 376.404686 0 376.404686 5.62108584 382.023431 5.62108584 387.642176 5.62108584 393.260922 5.62108584 398.879667 5.62108584 404.498412 5.62108584 404.498412 0 398.879667 0"></polygon>
            <polygon id="Path" points="393.260922 39.3134302 387.642176 39.3134302 382.023431 39.3134302 382.023431 33.7606858 376.404686 33.7606858 376.404686 39.3817716 382.023431 39.3817716 382.023431 39.398857 376.404686 39.398857 376.404686 45.0199429 382.023431 45.0199429 382.023431 44.934516 387.642176 44.934516 393.260922 44.934516 398.879667 44.934516 404.498412 44.934516 404.498412 39.3134302 398.879667 39.3134302"></polygon>
            <polygon id="Path" points="376.404686 5.621086 382.023431 5.621086 382.023431 11.242172 376.404686 11.242172"></polygon>
            <polygon id="Path" points="376.404686 16.8803429 376.404686 22.5014287 382.023431 22.5014287 382.023431 22.4501726 387.642176 22.4501726 393.260922 22.4501726 398.879667 22.4501726 398.879667 16.8290868 393.260922 16.8290868 387.642176 16.8290868 382.023431 16.8290868 382.023431 11.2592571 376.404686 11.2592571 376.404686 16.8803429 382.023431 16.8803429"></polygon>
            <polygon id="Path" points="376.404686 22.518514 382.023431 22.518514 382.023431 28.1396 376.404686 28.1396"></polygon>
            <polygon id="Path" points="376.404686 28.1396 382.023431 28.1396 382.023431 33.760686 376.404686 33.760686"></polygon>
            <polygon id="Path" points="679.765686 44.934516 685.384431 44.934516 685.384431 39.3134302 685.384431 33.6923443 679.765686 33.6923443 679.765686 39.3134302"></polygon>
            <polygon id="Path" points="674.146941 28.071259 679.765686 28.071259 679.765686 33.692345 674.146941 33.692345"></polygon>
            <polygon id="Path" points="679.765686 11.2250863 679.765686 11.2421717 679.765686 16.8290868 674.146941 16.8290868 668.528196 16.8290868 662.909451 16.8290868 662.909451 11.2592571 657.290706 11.2592571 657.290706 16.8803429 662.909451 16.8803429 657.290706 16.8803429 657.290706 22.5014287 662.909451 22.5014287 662.909451 22.4501726 668.528196 22.4501726 668.528196 28.0712585 674.146941 28.0712585 674.146941 22.4501726 679.765686 22.4501726 679.765686 16.8461722 685.384431 16.8461722 685.384431 11.2421717 685.384431 11.2250863 685.384431 5.62108584 679.765686 5.62108584"></polygon>
            <polygon id="Path" points="668.528196 5.62108584 674.146941 5.62108584 679.765686 5.62108584 679.765686 0 674.146941 0 668.528196 0 662.909451 0 657.290706 0 657.290706 5.62108584 662.909451 5.62108584"></polygon>
            <polygon id="Path" points="657.290706 5.621086 662.909451 5.621086 662.909451 11.242172 657.290706 11.242172"></polygon>
            <polygon id="Path" points="657.290706 22.518514 662.909451 22.518514 662.909451 28.1396 657.290706 28.1396"></polygon>
            <polygon id="Path" points="657.290706 28.1396 662.909451 28.1396 662.909451 33.760686 657.290706 33.760686"></polygon>
            <polygon id="Path" points="657.290706 33.760686 662.909451 33.760686 662.909451 39.381772 657.290706 39.381772"></polygon>
            <polygon id="Path" points="657.290706 39.398857 662.909451 39.398857 662.909451 45.019943 657.290706 45.019943"></polygon>
            <polygon id="Path" points="994.364177 28.0712585 994.364177 33.6923443 994.364177 39.3134302 999.982922 39.3134302 999.982922 33.6923443 999.982922 28.0712585 999.982922 22.4501726 994.364177 22.4501726"></polygon>
            <polygon id="Path" points="988.745432 16.8290868 983.126686 16.8290868 977.507941 16.8290868 977.507941 11.2592571 971.889196 11.2592571 971.889196 16.8803429 977.507941 16.8803429 977.507941 22.4501726 983.126686 22.4501726 988.745432 22.4501726 994.364177 22.4501726 994.364177 16.8290868"></polygon>
            <polygon id="Path" points="994.364177 5.621086 999.982922 5.621086 999.982922 11.242172 994.364177 11.242172"></polygon>
            <polygon id="Path" points="977.507941 0 977.507941 5.62108584 983.126686 5.62108584 988.745432 5.62108584 994.364177 5.62108584 994.364177 0 988.745432 0 983.126686 0"></polygon>
            <polygon id="Path" points="971.889196 5.621086 977.507941 5.621086 977.507941 11.242172 971.889196 11.242172"></polygon>
            <polygon id="Path" points="971.889196 33.760686 977.507941 33.760686 977.507941 39.381772 971.889196 39.381772"></polygon>
            <polygon id="Path" points="983.126686 39.398857 977.507941 39.398857 977.507941 45.0199429 983.126686 45.0199429 988.745432 45.0199429 994.364177 45.0199429 994.364177 39.398857 988.745432 39.398857"></polygon>
            <polygon id="Path" points="825.818902 5.621086 831.437647 5.621086 831.437647 11.242172 825.818902 11.242172"></polygon>
            <polygon id="Path" points="825.818902 11.259257 831.437647 11.259257 831.437647 16.880343 825.818902 16.880343"></polygon>
            <polygon id="Path" points="825.818902 16.880343 831.437647 16.880343 831.437647 22.501429 825.818902 22.501429"></polygon>
            <polygon id="Path" points="825.818902 22.518514 831.437647 22.518514 831.437647 28.1396 825.818902 28.1396"></polygon>
            <polygon id="Path" points="825.818902 28.1396 831.437647 28.1396 831.437647 33.760686 825.818902 33.760686"></polygon>
            <polygon id="Path" points="825.818902 33.760686 831.437647 33.760686 831.437647 39.381772 825.818902 39.381772"></polygon>
            <polygon id="Path" points="820.217235 5.62108584 825.818902 5.62108584 825.818902 0 820.217235 0 814.59849 0 808.979745 0 808.979745 5.62108584 814.59849 5.62108584"></polygon>
            <polygon id="Path" points="803.361 5.621086 808.979745 5.621086 808.979745 11.242172 803.361 11.242172"></polygon>
            <polygon id="Path" points="803.361 11.259257 808.979745 11.259257 808.979745 16.880343 803.361 16.880343"></polygon>
            <polygon id="Path" points="803.361 16.880343 808.979745 16.880343 808.979745 22.501429 803.361 22.501429"></polygon>
            <polygon id="Path" points="803.361 22.518514 808.979745 22.518514 808.979745 28.1396 803.361 28.1396"></polygon>
            <polygon id="Path" points="803.361 28.1396 808.979745 28.1396 808.979745 33.760686 803.361 33.760686"></polygon>
            <polygon id="Path" points="803.361 33.760686 808.979745 33.760686 808.979745 39.381772 803.361 39.381772"></polygon>
            <polygon id="Path" points="814.59849 39.398857 808.979745 39.398857 808.979745 45.0199429 814.59849 45.0199429 820.217235 45.0199429 825.818902 45.0199429 825.818902 39.398857 820.217235 39.398857"></polygon>
            <polygon id="Path" points="910.100079 11.259257 915.718824 11.259257 915.718824 16.880343 910.100079 16.880343"></polygon>
            <polygon id="Path" points="910.100079 16.880343 915.718824 16.880343 915.718824 22.501429 910.100079 22.501429"></polygon>
            <polygon id="Path" points="910.100079 22.518514 915.718824 22.518514 915.718824 28.1396 910.100079 28.1396"></polygon>
            <polygon id="Path" points="910.100079 28.1396 915.718824 28.1396 915.718824 33.760686 910.100079 33.760686"></polygon>
            <polygon id="Path" points="910.100079 33.760686 915.718824 33.760686 915.718824 39.381772 910.100079 39.381772"></polygon>
            <polygon id="Path" points="893.243843 5.62108584 893.243843 0 887.625098 0 887.625098 5.62108584 887.625098 11.2421717 893.243843 11.2421717"></polygon>
            <polygon id="Path" points="910.100079 5.62108584 910.100079 11.2421717 915.718824 11.2421717 915.718824 5.62108584 915.718824 0 910.100079 0"></polygon>
            <polygon id="Path" points="887.625098 11.259257 893.243843 11.259257 893.243843 16.880343 887.625098 16.880343"></polygon>
            <polygon id="Path" points="887.625098 16.880343 893.243843 16.880343 893.243843 22.501429 887.625098 22.501429"></polygon>
            <polygon id="Path" points="887.625098 22.518514 893.243843 22.518514 893.243843 28.1396 887.625098 28.1396"></polygon>
            <polygon id="Path" points="887.625098 28.1396 893.243843 28.1396 893.243843 33.760686 887.625098 33.760686"></polygon>
            <polygon id="Path" points="887.625098 33.760686 893.243843 33.760686 893.243843 39.381772 887.625098 39.381772"></polygon>
            <polygon id="Path" points="898.862588 39.398857 893.243843 39.398857 893.243843 45.0199429 898.862588 45.0199429 904.481333 45.0199429 910.100079 45.0199429 910.100079 39.398857 904.481333 39.398857"></polygon>
            <polygon id="Path" points="595.501588 16.8290868 589.882843 16.8290868 584.264098 16.8290868 578.645353 16.8290868 578.645353 5.80902488 573.026608 5.80902488 573.026608 45.0199429 578.645353 45.0199429 578.645353 22.4501726 584.264098 22.4501726 589.882843 22.4501726 595.501588 22.4501726 595.501588 44.8320038 601.120333 44.8320038 601.120333 5.62108584 595.501588 5.62108584"></polygon>
            <polygon id="Path" points="589.882843 0 584.264098 0 578.645353 0 578.645353 5.62108584 584.264098 5.62108584 589.882843 5.62108584 595.501588 5.62108584 595.501588 0"></polygon>
            <polygon id="Path" points="741.554804 0 747.173549 0 747.173549 5.621086 741.554804 5.621086"></polygon>
            <polygon id="Path" points="741.554804 5.621086 747.173549 5.621086 747.173549 11.242172 741.554804 11.242172"></polygon>
            <polygon id="Path" points="741.554804 11.259257 747.173549 11.259257 747.173549 16.880343 741.554804 16.880343"></polygon>
            <polygon id="Path" points="741.554804 16.880343 747.173549 16.880343 747.173549 22.501429 741.554804 22.501429"></polygon>
            <polygon id="Path" points="741.554804 22.518514 747.173549 22.518514 747.173549 28.1396 741.554804 28.1396"></polygon>
            <polygon id="Path" points="741.554804 28.1396 747.173549 28.1396 747.173549 33.760686 741.554804 33.760686"></polygon>
            <polygon id="Path" points="741.554804 33.760686 747.173549 33.760686 747.173549 39.381772 741.554804 39.381772"></polygon>
            <polygon id="Path" points="741.554804 39.398857 747.173549 39.398857 747.173549 45.019943 741.554804 45.019943"></polygon>
            <polygon id="Path" points="500 39.3134302 500 44.934516 505.618745 44.934516 505.618745 39.3134302 505.618745 33.6923443 500 33.6923443"></polygon>
            <polygon id="Path" points="494.381255 28.0712585 494.381255 22.5185141 488.76251 22.5185141 488.76251 28.1225146 494.381255 28.1225146 494.381255 33.6923443 500 33.6923443 500 28.0712585"></polygon>
            <polygon id="Path" points="511.220412 0 516.839157 0 516.839157 5.621086 511.220412 5.621086"></polygon>
            <polygon id="Path" points="511.220412 5.621086 516.839157 5.621086 516.839157 11.242172 511.220412 11.242172"></polygon>
            <polygon id="Path" points="511.220412 11.259257 516.839157 11.259257 516.839157 16.880343 511.220412 16.880343"></polygon>
            <polygon id="Path" points="511.220412 16.880343 516.839157 16.880343 516.839157 22.501429 511.220412 22.501429"></polygon>
            <polygon id="Path" points="511.220412 28.0712585 505.618745 28.0712585 505.618745 33.6923443 511.220412 33.6923443 511.220412 28.1225146 516.839157 28.1225146 516.839157 22.5185141 511.220412 22.5185141"></polygon>
            <polygon id="Path" points="488.76251 0 494.381255 0 494.381255 5.621086 488.76251 5.621086"></polygon>
            <polygon id="Path" points="488.76251 5.621086 494.381255 5.621086 494.381255 11.242172 488.76251 11.242172"></polygon>
            <polygon id="Path" points="488.76251 11.259257 494.381255 11.259257 494.381255 16.880343 488.76251 16.880343"></polygon>
            <polygon id="Path" points="488.76251 16.880343 494.381255 16.880343 494.381255 22.501429 488.76251 22.501429"></polygon>
            <polygon id="Path" points="22.47498 28.071259 28.093725 28.071259 28.093725 33.692345 22.47498 33.692345"></polygon>
            <polygon id="Path" points="11.23749 28.071259 16.856235 28.071259 16.856235 33.692345 11.23749 33.692345"></polygon>
            <polygon id="Path" points="22.4749804 16.8290868 16.8562353 16.8290868 16.8562353 22.4501726 16.8562353 28.0712585 22.4749804 28.0712585 22.4749804 22.4501726"></polygon>
            <polygon id="Path" points="0 0 5.618745 0 5.618745 5.621086 0 5.621086"></polygon>
            <polygon id="Path" points="0 5.621086 5.618745 5.621086 5.618745 11.242172 0 11.242172"></polygon>
            <polygon id="Path" points="0 11.259257 5.618745 11.259257 5.618745 16.880343 0 16.880343"></polygon>
            <polygon id="Path" points="0 16.880343 5.618745 16.880343 5.618745 22.501429 0 22.501429"></polygon>
            <polygon id="Path" points="0 22.518514 5.618745 22.518514 5.618745 28.1396 0 28.1396"></polygon>
            <polygon id="Path" points="5.61874509 28.1396 0 28.1396 0 33.7606858 5.61874509 33.7606858 5.61874509 39.3134302 5.61874509 44.934516 11.2374902 44.934516 11.2374902 39.3134302 11.2374902 33.6923443 5.61874509 33.6923443"></polygon>
            <polygon id="Path" points="33.712471 0 39.331216 0 39.331216 5.621086 33.712471 5.621086"></polygon>
            <polygon id="Path" points="33.712471 5.621086 39.331216 5.621086 39.331216 11.242172 33.712471 11.242172"></polygon>
            <polygon id="Path" points="33.712471 11.259257 39.331216 11.259257 39.331216 16.880343 33.712471 16.880343"></polygon>
            <polygon id="Path" points="33.712471 16.880343 39.331216 16.880343 39.331216 22.501429 33.712471 22.501429"></polygon>
            <polygon id="Path" points="33.712471 22.518514 39.331216 22.518514 39.331216 28.1396 33.712471 28.1396"></polygon>
            <polygon id="Path" points="33.7124705 33.6923443 28.0937255 33.6923443 28.0937255 39.3134302 28.0937255 44.934516 33.7124705 44.934516 33.7124705 39.3134302 33.7124705 33.7606858 39.3312156 33.7606858 39.3312156 28.1396 33.7124705 28.1396"></polygon>
            <polygon id="Path" points="112.357824 0 106.739078 0 101.120333 0 95.5015883 0 95.5015883 5.62108584 101.120333 5.62108584 106.739078 5.62108584 112.357824 5.62108584 117.976569 5.62108584 123.595314 5.62108584 123.595314 0 117.976569 0"></polygon>
            <polygon id="Path" points="112.357824 39.3134302 106.739078 39.3134302 101.120333 39.3134302 101.120333 33.7606858 95.5015883 33.7606858 95.5015883 39.3817716 101.120333 39.3817716 101.120333 39.398857 95.5015883 39.398857 95.5015883 45.0199429 101.120333 45.0199429 101.120333 44.934516 106.739078 44.934516 112.357824 44.934516 117.976569 44.934516 123.595314 44.934516 123.595314 39.3134302 117.976569 39.3134302"></polygon>
            <polygon id="Path" points="95.501588 5.621086 101.120333 5.621086 101.120333 11.242172 95.501588 11.242172"></polygon>
            <polygon id="Path" points="95.5015883 16.8803429 95.5015883 22.5014287 101.120333 22.5014287 101.120333 22.4501726 106.739078 22.4501726 112.357824 22.4501726 117.976569 22.4501726 117.976569 16.8290868 112.357824 16.8290868 106.739078 16.8290868 101.120333 16.8290868 101.120333 11.2592571 95.5015883 11.2592571 95.5015883 16.8803429 101.120333 16.8803429"></polygon>
            <polygon id="Path" points="95.501588 22.518514 101.120333 22.518514 101.120333 28.1396 95.501588 28.1396"></polygon>
            <polygon id="Path" points="95.501588 28.1396 101.120333 28.1396 101.120333 33.760686 95.501588 33.760686"></polygon>
        </g>
        <g id="WAV" transform="translate(1.000000, 0.000000)" fill="#000000" fill-rule="nonzero">
            <path d="M890.562558,0 L829.951839,210.115847 L769.341121,0 L659.920757,0 L786.333982,438.222586 L873.569696,438.222586 L1000,0 L890.562558,0 Z M860.385285,420.692999 L799.518393,420.692999 L683.215493,17.5295869 L756.15671,17.5295869 L829.951839,273.331706 L903.746969,17.5295869 L976.688185,17.5295869 L860.385285,420.692999 Z" id="Shape"></path>
            <path d="M451.173276,0 L390.562558,210.115847 L329.951839,0 L230.641801,0 L170.031082,210.115847 L109.420364,0 L-2.84217094e-14,0 L126.413225,438.222586 L213.648939,438.222586 L280.305359,207.177164 L346.944701,438.222586 L434.180415,438.222586 L560.610718,0 L451.173276,0 Z M420.996004,420.692999 L360.129112,420.692999 L280.305359,143.961305 L200.464528,420.692999 L139.597636,420.692999 L23.2947365,17.5295869 L96.2359531,17.5295869 L170.031082,273.331706 L243.826212,17.5295869 L316.767428,17.5295869 L390.562558,273.331706 L464.357687,17.5295869 L537.298904,17.5295869 L420.996004,420.692999 Z" id="Shape"></path>
            <path d="M662.772825,262.926717 L627.045121,139.091975 L610.205964,80.7283605 L593.366807,139.091975 L566.417324,232.480593 L557.639102,262.926717 L662.772825,262.926717 Z M610.223042,143.961305 L639.478089,245.397131 L580.950917,245.397131 L610.223042,143.961305 Z" id="Shape"></path>
            <polygon id="Path" points="677.938313 315.515478 542.490692 315.515478 519.588756 394.91118 507.087475 438.222586 525.327049 438.222586 555.658025 333.045065 664.753902 333.045065 695.101957 438.222586 713.341531 438.222586 700.84025 394.91118"></polygon>
        </g>
    </g>
</svg>