<svg height="440" viewBox="0 0 1000 440" width="1000" xmlns="http://www.w3.org/2000/svg"><g transform="translate(0 2)"><path d="m890.719853 0-60.523602 209.52965-60.523602-209.52965h-109.263093l126.231531 437h87.110329l126.248584-437zm-29.223962 419.929688h-60.875741l-116.319809-402.8593755h72.951822l73.805857 255.6092115 73.805858-255.6092115h72.951822z"/><path d="m451.835399 0-60.699668 209.52965-60.699668-209.52965h-99.455782l-60.699668 209.52965-60.699668-209.52965h-109.580945l126.598744 437h87.363738l66.754242-230.400834 66.737138 230.400834h87.363738l126.615847-437zm-29.195564 419.929688h-61.027252l-80.034056-276.523003-80.051179 276.523003h-61.027252l-116.609311-402.8593755h73.1333875l73.9895495 255.6092115 73.98955-255.6092115h73.133388l73.989549 255.6092115 73.98955-255.6092115h73.133388z"/><path d="m663.822526 261.175781-35.954822-122.983085-16.946202-57.9622272-16.946202 57.9622272-27.120798 92.74635-8.834024 30.236735zm-52.039068-117.785156 29.854767 100.714844h-59.726962z"/><path d="m677.867783 314.09375h-135.599047l-22.927541 79.524554-12.515256 43.381696h18.259965l30.364885-105.348214h109.217843l30.381983 105.348214h18.259965l-12.515257-43.381696z"/></g></svg>