<svg height="22" viewBox="0 0 22 22" width="22" xmlns="http://www.w3.org/2000/svg"><g fill="none" transform="translate(1 3)"><path d="m14.5035262.07913644c.0762676.63309153.0762676.63309153.1526687 1.26618307.6487418.03957514.6487418.03957514 1.2980178.07913644v1.34531951h1.3730833v1.42445594h1.298285v1.69063902l1.298285.07920568c.0373992.63309153.0373992 3.63309153.076134 4.2661831-.4327617.0263095-.8655233.0526653-1.298285.0790672-.0373991 2.0575474-.0373991.0575474-.076134 2.1150949-.6104076 0-.6104076 0-1.2208153 0-.0387348.6726944-.0387348.6726944-.0774697 1.3453888-1.2969493.0394643-1.2969493.0394643-2.5948335.0790672-.0382006.6726944-.0382006.6726944-.0762676 1.3453887-2.1882513 0-3.8998224-.0516498-6.0874059 0v1.424456h-2.52873133v1.3452502c-1.02043625 0-1.81796863 0-3.36842226 0 0-.6330915 0-.6330915 0-1.266183.64887536-.0396029.64887536-.0396029 1.29775071-.0790672 0-.6330916 0-.6330916 0-1.2661831.64874179-.0396028.64874179-.0396028 1.29761714-.0792057 0-.7121587 0-.7121587 0-1.4244559-1.29761714-.0396029-1.29761714-.0396029-2.59536785-.0790672 0-.6726944 0-.6726944 0-1.3453888-.68694235 0-.68694235 0-1.37401827 0 0-1.3848531 0-1.3848531 0-2.76970619-.64887535 0-.64887535 0-1.29761714 0 0-1.97848027 0-1.97848027 0-3.95682208.64874179-.03960284.64874179-.03960284 1.29761714-.07920568 0-1.34525027 0-1.34525027 0-2.69063901 1.33581771-.03960284 1.33581771-.03960284 2.67176898-.07906721 0-.67272206 0-.67272206 0-1.34538874.68694235-.0395613.68694235-.0395613 1.37401827-.07913644 0-.67265283 0-.67265283 0-1.34531951h7.93877221v1.26618307h1.2213496c0-.63309154 0-.63309154 0-1.26618307z" fill="#010101"/><path d="m14.5035262.07913644c.038067.63309153.038067.63309153.0762676 1.26618307.0382005-.67265283.0382005-.67265283.0764011-1.34531951-4.6182615 0-4.6182615 0-9.23652294 0 4.54186034.03957514 4.54186034.03957514 9.08385424.07913644z" fill="#212121"/><path d="m14.5035262.07913644v1.26618307c-.6106748 0-.6106748 0-1.2213496 0 0-.63309154 0-.63309154 0-1.26618307z" fill="#131313"/></g></svg>